<!-- SVG map of flags from stripe.com -->
<svg xmlns="http://www.w3.org/2000/svg" width="537" height="210">
    <path d="M12 10a2 2 0 0 0-2 2v11a2 2 0 0 0 2 2h5V10z" fill="#43458b"/>
    <path d="M24 10v15h5a2 2 0 0 0 2-2V12a2 2 0 0 0-2-2z" fill="#e25950"/>
    <path fill="#fcd669" d="M17 10h7v15h-7z"/>
    <path d="M18 18v.5a2.5 2.5 0 0 0 2.5 2.5v-3zm2.5-3H23v3h-2.5z" fill="#e25950"/>
    <path fill="#f6f9fc" d="M18 15h2.5v3H18zm2.5 6a2.5 2.5 0 0 0 2.5-2.5V18h-2.5z"/>
    <path d="M43 10a2 2 0 0 0-2 2v11a2 2 0 0 0 2 2h3V10z" fill="#e25950"/>
    <path d="M46 10v5h16v-3a2 2 0 0 0-2-2z" fill="#24b47e"/>
    <path fill="#f6f9fc" d="M46 15h16v5H46z"/>
    <path d="M46 20v5h14a2 2 0 0 0 2-2v-3z" fill="#333"/>
    <path fill="#eaeef3" d="M61 15h1v5h-1z"/>
    <path d="M93 12a2 2 0 0 0-2-2H74a2 2 0 0 0-2 2v3h21z"/>
    <path d="M74.49 10A2.49 2.49 0 0 0 72 12.5V15h21v-2.5a2.51 2.51 0 0 0-2.49-2.5z"/>
    <path fill="#45b2e8" d="M72 15h21v5H72z"/>
    <path d="M72 19v3a3 3 0 0 0 3 3h15a3 3 0 0 0 3-3v-3z" fill="#f6f9fc"/>
    <path d="M79 15a3.5 3.5 0 0 1 7 0z" fill="#fcd669"/>
    <path d="M91.19 15l-8.42 9.16a1 1 0 0 1-1.41.06l-.09-.1L73.65 15 72 13v10a2 2 0 0 0 2 2h17a2 2 0 0 0 2-2V13zM105 10a2 2 0 0 0-2 2v3h21v-3a2 2 0 0 0-2-2z"
          fill="#e25950"/>
    <path fill="#555abf" d="M103 15h21v5h-21z"/>
    <path d="M103 20v3a2 2 0 0 0 2 2h17a2 2 0 0 0 2-2v-3z" fill="#fcd669"/>
    <path d="M136 10a2 2 0 0 0-2 2v3h21v-3a2 2 0 0 0-2-2z" fill="#45b2e8"/>
    <path fill="#f6f9fc" d="M134 15h21v5h-21z"/>
    <path fill="#eaeef3" d="M134 15h1v5h-1zm20 0h1v5h-1z"/>
    <path d="M134 20v3a2 2 0 0 0 2 2h17a2 2 0 0 0 2-2v-3z" fill="#45b2e8"/>
    <circle cx="144.5" cy="17.5" r="1.5" fill="#f4b32e"/>
    <path d="M167 10a2 2 0 0 0-2 2v3h21v-3a2 2 0 0 0-2-2z" fill="#e25950"/>
    <path fill="#f6f9fc" d="M165 15h21v5h-21z"/>
    <path fill="#eaeef3" d="M165 15h1v5h-1zm20 0h1v5h-1z"/>
    <path d="M165 20v3a2 2 0 0 0 2 2h17a2 2 0 0 0 2-2v-3z" fill="#e25950"/>
    <path d="M198 10h17a2 2 0 0 1 2 2v11a2 2 0 0 1-2 2h-17a2 2 0 0 1-2-2V12a2 2 0 0 1 2-2z" fill="#43458b"/>
    <path d="M196 15.66l3.5-2.4 5.43 3.74h-1.77l-3.66-2.52-3.5 2.4zm9-5.57v1.22l-3.5 2.4-4.76-3.27a2 2 0 0 1 1.12-.44l3.64 2.5z"
          fill="#f6f9fc"/>
    <path d="M204.91 17l-3.66-2.51-3.66 2.51H196v-.12l5.25-3.6 3.75 2.57V17zm-5.16-3.28l-3.6-2.47a2 2 0 0 1 .6-.8l3 2.06 3.66-2.51H205v.12z"
          fill="#e25950"/>
    <path fill="#f6f9fc" d="M205 14.63h-3.37V17h-2.25v-2.37H196v-2.25h3.38V10h2.25v2.38H205v2.25z"/>
    <path fill="#e25950" d="M205 14h-4v3h-1v-3h-4v-1h4v-3h1v3h4v1z"/>
    <path d="M213.24 16.5a.75.75 0 1 1 .76-.75.76.76 0 0 1-.76.75zm-1.24 3a.5.5 0 1 1 .5-.5.5.5 0 0 1-.5.5zm-1.25-5a.75.75 0 1 1 .75-.75.76.76 0 0 1-.76.75zm-3 3a.75.75 0 1 1 .75-.75.76.76 0 0 1-.76.75zm3 4a.75.75 0 1 1-.75.75.75.75 0 0 1 .74-.75zM200 22.52l-.68.66A.18.18 0 0 1 199 23l.06-1-.92-.15a.18.18 0 0 1-.07-.33l.78-.52-.47-.83a.18.18 0 0 1 .21-.27l.89.28.34-.89a.19.19 0 0 1 .18-.08.18.18 0 0 1 .17.12l.34.89.89-.28a.18.18 0 0 1 .21.27l-.48.79.77.55a.18.18 0 0 1-.07.33l-.92.15.09.97a.18.18 0 0 1-.3.15z"
          fill="#f6f9fc"/>
    <path fill="#fcd669" d="M233 10h9v15h-9V10z"/>
    <path d="M229 10h5v15h-5a2 2 0 0 1-2-2V12a2 2 0 0 1 2-2z" fill="#333"/>
    <path d="M246 25h-5V10h5a2 2 0 0 1 2 2v11a2 2 0 0 1-2 2zM260 10a2 2 0 0 0-2 2v6h21v-6a2 2 0 0 0-2-2z"
          fill="#e25950"/>
    <path d="M258 18v5a2 2 0 0 0 2 2h17a2 2 0 0 0 2-2v-5z" fill="#24b47e"/>
    <path fill="#fcd669"
          d="M268.5 19.55l-2.64 1.59.7-2.94-2.34-2.19 2.96-.13L268.5 13l1.32 2.88 2.96.13-2.34 2.19.7 2.94-2.64-1.59z"/>
    <path d="M291 10a2 2 0 0 0-2 2v4h21v-4a2 2 0 0 0-2-2z" fill="#f6f9fc"/>
    <path d="M289.5 15.5h20V12a1.5 1.5 0 0 0-1.5-1.5h-17a1.5 1.5 0 0 0-1.5 1.5z" fill="none" stroke="#eaeef3"/>
    <path fill="#24b47e" d="M289 15h21v5h-21z"/>
    <path d="M289 20v3a2 2 0 0 0 2 2h17a2 2 0 0 0 2-2v-3zM322 10a2 2 0 0 0-2 2v3h21v-3a2 2 0 0 0-2-2z" fill="#e25950"/>
    <path fill="#fcd669" d="M320 15h21v5h-21z"/>
    <path d="M320 20v3a2 2 0 0 0 2 2h17a2 2 0 0 0 2-2v-3z" fill="#24b47e"/>
    <path fill="#efc65e" d="M320 15h1v5h-1zm20 0h1v5h-1z"/>
    <path d="M353 10h17a2 2 0 0 1 2 2v11a2 2 0 0 1-2 2h-17a2 2 0 0 1-2-2V12a2 2 0 0 1 2-2z" fill="#24b47e"/>
    <path fill="#fcd669" d="M361.5 11.5l9 6-9 6-9-6 9-6z"/>
    <path d="M358.05 17a4.4 4.4 0 0 0-.05.5 3.49 3.49 0 0 0 5.77 2.65 8.62 8.62 0 0 0-5.72-3.15zm6.52 2.14a3.37 3.37 0 0 0 .43-1.64 3.49 3.49 0 0 0-6.54-1.7 9.82 9.82 0 0 1 6.11 3.34z"
          fill="#43458b"/>
    <path d="M358.46 15.8a3.24 3.24 0 0 0-.41 1.2 8.62 8.62 0 0 1 5.72 3.16 3.28 3.28 0 0 0 .8-1 9.82 9.82 0 0 0-6.11-3.36z"
          fill="#fff"/>
    <path fill="#f6f9fc" d="M387 10h11v15h-11V10z"/>
    <path d="M398 11h-11v-1h11zm-11 13h11v1h-11z" fill="#e25950" opacity=".1" style="isolation:isolate"/>
    <path d="M392.05 21v-2h-1.41l.18-.82-1.82-.29.65-1.19-.58-1.59 1.59.63.47-1.81.7.35.67-1.28.76 1.26.62-.26.3 1.75 1.82-.57-.6 1.47.6 1.23-1.76.29.16.83H393v2zM388 25h-4a2 2 0 0 1-2-2V12a2 2 0 0 1 2-2h4zm13 0h-4V10h4a2 2 0 0 1 2 2v11a2 2 0 0 1-2 2z"
          fill="#e25950"/>
    <rect width="21" height="15" rx="3" fill="#fcd669" x="413" y="10"/>
    <path d="M415 10a2 2 0 0 0-2 2v8l15-10z" fill="#45b2e8"/>
    <circle cx="416" cy="13" r="1" fill="#fcd669"/>
    <path d="M434 23a2 2 0 0 1-2 2h-13l15-10z" fill="#45b2e8"/>
    <path d="M432 10h-1l-18 12v1a2 2 0 0 0 2 2h1l18-12v-1a2 2 0 0 0-2-2z" fill="#e25950"/>
    <path d="M463 10h-3l-15.39 14.43A2 2 0 0 0 446 25h3l15.39-14.43A2 2 0 0 0 463 10z" fill="#fcd669"/>
    <path d="M446 10a2 2 0 0 0-2 2v11a2 2 0 0 0 .61 1.43L460 10z" fill="#24b47e"/>
    <path d="M449 25h14a2 2 0 0 0 2-2V12a2 2 0 0 0-.61-1.43zM477 10h17a2 2 0 0 1 2 2v11a2 2 0 0 1-2 2h-17a2 2 0 0 1-2-2V12a2 2 0 0 1 2-2z"
          fill="#e25950"/>
    <path fill="#fff" d="M490 19h-3v3h-3v-3h-3v-3h3v-3h3v3h3v3z"/>
    <path d="M514.5 18.5v-8H525a1.51 1.51 0 0 1 1.5 1.5v6.5z" fill="#f7f7f7"/>
    <path d="M525 11a1 1 0 0 1 1 1v6h-11v-7h10m0-1h-11v9h13v-7a2 2 0 0 0-2-2z" fill="#e9ebf0"/>
    <path d="M506 18v5a2 2 0 0 0 2 2h17a2 2 0 0 0 2-2v-5z" fill="#e25950"/>
    <path d="M508 10a2 2 0 0 0-2 2v6h9v-8z" fill="#43458b"/>
    <path d="M512.34 13.42h-1.17a.15.15 0 0 1-.17-.11l-.35-1.11a.16.16 0 0 0-.3 0l-.35 1.11a.15.15 0 0 1-.15.11h-1.19a.18.18 0 0 0-.16.12.17.17 0 0 0 .07.18l.94.69a.16.16 0 0 1 .06.18l-.36 1.11a.16.16 0 0 0 .06.18.17.17 0 0 0 .19 0l.94-.63a.18.18 0 0 1 .2 0l.94.63a.17.17 0 0 0 .19 0 .14.14 0 0 0 .06-.18l-.36-1.11a.16.16 0 0 1 .06-.18l1-.69a.18.18 0 0 0 .06-.18.18.18 0 0 0-.21-.12z"
          fill="#fff"/>
    <path d="M12 35a2 2 0 0 0-2 2v11a2 2 0 0 0 2 2h5V35z" fill="#24b47e"/>
    <path d="M24 35v15h5a2 2 0 0 0 2-2V37a2 2 0 0 0-2-2z" fill="#fcd669"/>
    <path fill="#e25950" d="M16 35h9v15h-9z"/>
    <path d="M23.62 41.3h-2a.29.29 0 0 1-.27-.2l-.63-1.9a.28.28 0 0 0-.27-.2.27.27 0 0 0-.26.2l-.63 1.91a.27.27 0 0 1-.26.2h-2a.27.27 0 0 0-.3.19.29.29 0 0 0 .11.31L18.75 43a.27.27 0 0 1 .1.31l-.62 1.92a.27.27 0 0 0 .1.31.26.26 0 0 0 .33 0l1.63-1.09a.29.29 0 0 1 .33 0l1.63 1.09a.26.26 0 0 0 .33 0 .27.27 0 0 0 .1-.31l-.62-1.92a.27.27 0 0 1 .1-.31l1.63-1.19a.27.27 0 0 0 .1-.31.27.27 0 0 0-.27-.2z"
          fill="#fcd669"/>
    <rect width="21" height="15" rx="2" fill="#e25950" x="41" y="35"/>
    <path d="M53.5 38a.5.5 0 0 1 .5.5.5.5 0 0 1-.5.5.5.5 0 0 1-.5-.5.5.5 0 0 1 .5-.5zm1 2a.5.5 0 0 1 .5.5.5.5 0 0 1-.5.5.5.5 0 0 1-.5-.5.5.5 0 0 1 .5-.5zm0 2a.5.5 0 0 1 .5.5.5.5 0 0 1-.5.5.5.5 0 0 1-.5-.5.5.5 0 0 1 .5-.5zm-1 2a.5.5 0 0 1 .5.5.5.5 0 0 1-.5.5.5.5 0 0 1-.5-.5.5.5 0 0 1 .5-.5zm-6.03-.41L45.01 45l.61-2.76-1.65-2.07 2.48-.13 1.02-2.14 1.02 2.14 2.48.13-1.65 2.07.69 2.76-2.54-1.41zM74 35a2 2 0 0 0-2 2v5h21v-5a2 2 0 0 0-2-2z"
          fill="#fcd669"/>
    <path fill="#43458b" d="M72 42h21v4H72z"/>
    <path d="M72 46v2a2 2 0 0 0 2 2h17a2 2 0 0 0 2-2v-2z" fill="#e25950"/>
    <path d="M124 38h-21v-1a2 2 0 0 1 2-2h17a2 2 0 0 1 2 2z" fill="#0172c6"/>
    <path fill="#f9f9f9" d="M103.02 38h21v2h-21zm0 7h21v2h-21z"/>
    <path d="M103 47h21v1a2 2 0 0 1-2 2h-17a2 2 0 0 1-2-2z" fill="#0172c6"/>
    <path fill="#e25950" d="M103 40h21v5h-21z"/>
    <path d="M107.52 40a2.5 2.5 0 1 0 2.48 2.54 2.5 2.5 0 0 0-2.48-2.54zm0 4a1.5 1.5 0 1 1 1.48-1.46 1.5 1.5 0 0 1-1.48 1.46z"
          fill="#f9f9f9"/>
    <circle cx="107.52" cy="42.54" r="1.5" fill="#0172c6"/>
    <path d="M136 35h17a2 2 0 0 1 2 2v11a2 2 0 0 1-2 2h-17a2 2 0 0 1-2-2V37a2 2 0 0 1 2-2z" fill="#f6f9fc"/>
    <path d="M153 50h-17a2 2 0 0 1-2-2V37a2 2 0 0 1 2-2h17a2 2 0 0 1 2 2v11a2 2 0 0 1-2 2zm1-13a1 1 0 0 0-1-1h-17a1 1 0 0 0-1 1v11a1 1 0 0 0 1 1h17a1 1 0 0 0 1-1z"
          fill="#8898aa" style="isolation:isolate" opacity=".2"/>
    <path d="M141.06 41.15a2.7 2.7 0 0 0 2.29 2.18.91.91 0 0 1 .64.55h.35a2.05 2.05 0 0 1 1.78-1.36s.16-1 .79-1h1.67a3.4 3.4 0 0 1 1.9-3.37l-1-.47a7.45 7.45 0 0 1-5.52 2 1.26 1.26 0 0 1-.25.91.52.52 0 0 1-.71.01c-.14-.14-.28-.54-.56-.56s-1.38 1.11-1.38 1.11z"
          fill="#f79a59"/>
    <path d="M152.18 43.08a1.31 1.31 0 0 0-1.29 0l.1-.19a.43.43 0 0 1 0-.07 1.52 1.52 0 0 0-.66-1.82 1.42 1.42 0 0 0 .19 2.1c-.15.27-.31.54-.49.8a1.9 1.9 0 0 0-.62-1.41 1.54 1.54 0 0 0-.14 2.32 5.63 5.63 0 0 1-.58.5 1.64 1.64 0 0 0-.33-1.47 1.36 1.36 0 0 0-.47 2 7.42 7.42 0 0 1-2.66.77c-.21 0-.21.35 0 .33a7.51 7.51 0 0 0 3.42-1.21 1.59 1.59 0 0 0 2.43-.4 1.53 1.53 0 0 0-1.47-.38 7.27 7.27 0 0 0 .76-.95 1.37 1.37 0 0 0 1.81-.92zm-8.38 3.52a7.42 7.42 0 0 1-2.66-.77 1.36 1.36 0 0 0-.47-2 1.64 1.64 0 0 0-.33 1.47 5.63 5.63 0 0 1-.58-.5 1.54 1.54 0 0 0-.14-2.32 1.9 1.9 0 0 0-.62 1.42c-.18-.26-.34-.53-.49-.8a1.42 1.42 0 0 0 .16-2.1 1.52 1.52 0 0 0-.67 1.84.43.43 0 0 1 0 .07l.1.19a1.31 1.31 0 0 0-1.29 0 1.37 1.37 0 0 0 1.82.9 7.27 7.27 0 0 0 .79.94 1.53 1.53 0 0 0-1.42.38 1.59 1.59 0 0 0 2.43.4 7.51 7.51 0 0 0 3.37 1.21c.2.07.2-.31 0-.33z"
          fill="#24b47e"/>
    <path d="M185 42v-5a1 1 0 0 0-1-1h-17a.93.93 0 0 0-.33.07L176 42zm-19.33 7.48a1.93 1.93 0 0 0 .59.38 1.93 1.93 0 0 1-.59-.38z"
          fill="#f6f9fc"/>
    <path d="M165.67 49.48a1.93 1.93 0 0 0 .59.38 1.93 1.93 0 0 1-.59-.38z" fill="#8898aa" opacity=".2"
          style="isolation:isolate"/>
    <path d="M184 35h-17a2 2 0 0 0-1.29.48.52.52 0 0 1 .13.06l.83.53A.93.93 0 0 1 167 36h17a1 1 0 0 1 1 1v5h1v-5a2 2 0 0 0-2-2z"
          fill="#f6f9fc"/>
    <path d="M184 35h-17a2 2 0 0 0-1.29.48.52.52 0 0 1 .13.06l.83.53A.93.93 0 0 1 167 36h17a1 1 0 0 1 1 1v5h1v-5a2 2 0 0 0-2-2z"
          fill="#8898aa" opacity=".2" style="isolation:isolate"/>
    <path d="M167 50a2 2 0 0 1-.74-.14 2 2 0 0 0 .74.14zm17 0a2 2 0 0 0 2-2 2 2 0 0 1-2 2z" fill="#e25950"/>
    <path d="M185 42h-9l-9.46 6.88-.73.53a.61.61 0 0 1-.14.07 1.93 1.93 0 0 0 .59.38 2 2 0 0 0 .74.14h17a2 2 0 0 0 2-2v-6z"
          fill="#e25950"/>
    <path d="M165 48.4a.49.49 0 0 1 0-.12.49.49 0 0 0 0 .12zm.08.11a2 2 0 0 0 .59 1 2 2 0 0 1-.59-1zM165 48a2.4 2.4 0 0 0 0 .28V48zm.08.51v-.11c0-.04-.01.08 0 .11z"
          fill="#43458b"/>
    <path d="M166.67 36.07l-.83-.53a.52.52 0 0 0-.13-.06A2 2 0 0 0 165 37v11.28a.49.49 0 0 0 0 .12v.11a2 2 0 0 0 .59 1 .61.61 0 0 0 .14-.07l.73-.53L176 42z"
          fill="#43458b"/>
    <path fill="#e25950" d="M196 39h21v7h-21v-7z"/>
    <path d="M196 48v-3h21v3a2 2 0 0 1-2 2h-17a2 2 0 0 1-2-2z" fill="#fcd669"/>
    <path d="M217 37v3h-21v-3a2 2 0 0 1 2-2h17a2 2 0 0 1 2 2z" fill="#333"/>
    <path d="M227 42v6a2 2 0 0 0 2 2h17a2 2 0 0 0 2-2v-6z" fill="#24b47e"/>
    <path d="M227 37v6h21v-6a2 2 0 0 0-2-2h-17a2 2 0 0 0-2 2z" fill="#45b2e8"/>
    <path d="M229.65 36.62c-.91-.62-1.65-.22-1.65.89v10c0 1.11.77 1.55 1.72 1L239 43z" fill="#fff"/>
    <path d="M233.8 41.85h-1.46a.22.22 0 0 1-.2-.14l-.45-1.39a.2.2 0 0 0-.38 0l-.45 1.39a.22.22 0 0 1-.2.14h-1.46a.2.2 0 0 0-.11.37l1.18.85a.2.2 0 0 1 .07.23l-.45 1.39a.21.21 0 0 0 .11.23.2.2 0 0 0 .24 0l1.18-.79a.21.21 0 0 1 .24 0l1.18.79a.2.2 0 0 0 .24 0 .21.21 0 0 0 .07-.23l-.49-1.39a.2.2 0 0 1 .07-.23l1.19-.85A.21.21 0 0 0 234 42a.19.19 0 0 0-.2-.15zM260 35h17a2 2 0 0 1 2 2v11a2 2 0 0 1-2 2h-17a2 2 0 0 1-2-2V37a2 2 0 0 1 2-2z"
          fill="#e25950"/>
    <path fill="#f6f9fc" d="M279 44h-12v6h-3v-6h-6v-3h6v-6h3v6h12v3z"/>
    <path d="M278 45v-5h1v5zm-15 4h5v1h-5zm0-14h5v1h-5zm-5 5h1v5h-1z" fill="#e25950" opacity=".1"
          style="isolation:isolate"/>
    <path d="M295 35v15h13a2 2 0 0 0 2-2V37a2 2 0 0 0-2-2z" fill="#f6f9fc"/>
    <path d="M291 35a2 2 0 0 0-2 2v11a2 2 0 0 0 2 2h8V35z" fill="#24b47e"/>
    <path d="M299 38v1a3.54 3.54 0 0 0-3 3.5 3.54 3.54 0 0 0 3 3.5v1a4.07 4.07 0 0 1-.5 0 4.5 4.5 0 0 1 0-9 4.07 4.07 0 0 1 .5 0z"
          fill="#e25950"/>
    <path d="M302.48 40.4a3.62 3.62 0 0 0-2.88-1.4 3.55 3.55 0 0 0-3.6 3.5 3.55 3.55 0 0 0 3.6 3.5 3.62 3.62 0 0 0 2.88-1.4 4.5 4.5 0 1 1 0-4.2z"
          fill="#e25950"/>
    <circle cx="301.5" cy="42.5" r="1.5" fill="#e25950"/>
    <path d="M308 36a1 1 0 0 1 1 1v11a1 1 0 0 1-1 1h-9v1h9a2 2 0 0 0 2-2V37a2 2 0 0 0-2-2h-9v1z" fill="#8898aa"
          opacity=".2" style="isolation:isolate"/>
    <path d="M322 35h17a2 2 0 0 1 2 2v5h-21v-5a2 2 0 0 1 2-2z" fill="#ffdd03"/>
    <path fill="#555abf" d="M320 42h21v4h-21z"/>
    <path d="M320 46h21v2a2 2 0 0 1-2 2h-17a2 2 0 0 1-2-2v-2z" fill="#e25950"/>
    <path d="M330.5 39a3.5 3.5 0 1 0 3.5 3.5 3.5 3.5 0 0 0-3.5-3.5zm0 6a2.5 2.5 0 1 1 2.5-2.5 2.5 2.5 0 0 1-2.5 2.5z"
          fill="#ffdd03"/>
    <circle cx="330.5" cy="42.5" r="2.5" fill="#6fc242"/>
    <path d="M353 35a2 2 0 0 0-2 2v3h21v-3a2 2 0 0 0-2-2z" fill="#45b2e8"/>
    <path d="M351 44v4a2 2 0 0 0 2 2h17a2 2 0 0 0 2-2v-4z" fill="#f6f9fc"/>
    <path d="M370 50h-17a2 2 0 0 1-2-2v-6h1v6a1 1 0 0 0 1 1h17a1 1 0 0 0 1-1v-6h1v6a2 2 0 0 1-2 2z" fill="#8898aa"
          opacity=".2" style="isolation:isolate"/>
    <path d="M351 40h21v5h-21z"/>
    <path d="M384 35a2 2 0 0 0-2 2v3h21v-3a2 2 0 0 0-2-2z" fill="#e25950"/>
    <path fill="#fff" d="M382 40h21v5h-21z"/>
    <path d="M382 45v3a2 2 0 0 0 2 2h17a2 2 0 0 0 2-2v-3zm7-4l3 1-3 2zm7 0v3l-3-2zm-4 2h1v1h-1z"/>
    <path d="M389 41l3 1-3 2zm7 0v3l-3-2zm-4 2h1v1h-1z" fill="#fcd669"/>
    <path fill="#eaeef3" d="M382 40h1v5h-1zm20 0h1v5h-1z"/>
    <path fill="#fcd669" d="M413 38h21v9h-21v-9z"/>
    <path d="M413 39v-2a2 2 0 0 1 2-2h17a2 2 0 0 1 2 2v2zm19 11h-17a2 2 0 0 1-2-2v-2h21v2a2 2 0 0 1-2 2z"
          fill="#e25950"/>
    <path fill="#f6f9fc" d="M418 40h2v2.5h-2V40z"/>
    <path d="M418 45a2 2 0 0 1-2-2v-.5h2z" fill="#e25950" opacity=".5" style="isolation:isolate"/>
    <path d="M418 45v-2.5h2v.5a2 2 0 0 1-2 2zm-2-5h2v2.5h-2z" fill="#e25950"/>
    <path d="M446 35h17a2 2 0 0 1 2 2v11a2 2 0 0 1-2 2h-17a2 2 0 0 1-2-2V37a2 2 0 0 1 2-2z" fill="#43458b"/>
    <path d="M458.91 43.22a.85.85 0 1 1 .84-.84.85.85 0 0 1-.84.84zM457 39.78a.85.85 0 1 1 1.19 0 .85.85 0 0 1-1.19 0zm1.18 5.22a.85.85 0 1 1-1.18 0 .85.85 0 0 1 1.18 0zm-3.8 2.77a.85.85 0 1 1 .84-.84.85.85 0 0 1-.84.82zm0-9.06a.85.85 0 0 1-.74-1.27.85.85 0 1 1 .74 1.27zm-3.77 7.47a.85.85 0 1 1 1.19 0 .85.85 0 0 1-1.19 0zm0-6.4a.86.86 0 0 1 1.17-1.21.86.86 0 0 1-1.21 1.21zm.12 2.6a.85.85 0 0 1-1.27.73.85.85 0 1 1 1.27-.73z"
          fill="#fce883"/>
    <path d="M477 35h17a2 2 0 0 1 2 2v11a2 2 0 0 1-2 2h-17a2 2 0 0 1-2-2V37a2 2 0 0 1 2-2z" fill="#f6f9fc"/>
    <path d="M494 50h-17a2 2 0 0 1-2-2V37a2 2 0 0 1 2-2h17a2 2 0 0 1 2 2v11a2 2 0 0 1-2 2zm1-13a1 1 0 0 0-1-1h-17a1 1 0 0 0-1 1v11a1 1 0 0 0 1 1h17a1 1 0 0 0 1-1z"
          fill="#8898aa" opacity=".25" style="isolation:isolate"/>
    <path fill="#555abf" d="M496 44h-12v6h-3v-6h-6v-3h6v-6h3v6h12v3z"/>
    <rect width="21" height="15" rx="2" fill="#f6f9fc" x="506" y="35"/>
    <path d="M525 36a1 1 0 0 1 1 1v11a1 1 0 0 1-1 1h-17a1 1 0 0 1-1-1V37a1 1 0 0 1 1-1h17m0-1h-17a2 2 0 0 0-2 2v11a2 2 0 0 0 2 2h17a2 2 0 0 0 2-2V37a2 2 0 0 0-2-2z"
          fill="#eaeef3"/>
    <path fill="#0172c6" d="M527 41h-13.42v-6h-3v6H506v3h4.58v6h3v-6H527v-3z"/>
    <path fill="#e25950" d="M527 42h-14.42v-7h-1v7H506v1h5.58v7h1v-7H527v-1z"/>
    <path fill="#f6f9fc" d="M16 60h9v15h-9V60z"/>
    <path d="M16 75v-1h9v1zm0-15h9v1h-9z" fill="#8898aa" opacity=".1" style="isolation:isolate"/>
    <path d="M12 60h5v15h-5a2 2 0 0 1-2-2V62a2 2 0 0 1 2-2z" fill="#555abf"/>
    <path d="M29 75h-5V60h5a2 2 0 0 1 2 2v11a2 2 0 0 1-2 2z" fill="#e25950"/>
    <path d="M43 60a2 2 0 0 0-2 2v3h21v-3a2 2 0 0 0-2-2z" fill="#24b47e"/>
    <path fill="#fcd669" d="M41 65h21v5H41z"/>
    <path d="M41 70v3a2 2 0 0 0 2 2h17a2 2 0 0 0 2-2v-3z" fill="#217ab7"/>
    <path fill="#e9c863" d="M41 65h1v5h-1zm20 0h1v5h-1z"/>
    <path d="M92.93 73.5H90.5V75h-16v-1.5h-2.43A2.08 2.08 0 0 1 72 73V62a2.08 2.08 0 0 1 .07-.5h2.43V60h16v1.5h2.43a2.08 2.08 0 0 1 .07.5v11a2.08 2.08 0 0 1-.07.5z"
          fill="#43458b"/>
    <path d="M89.66 60H91a2 2 0 0 1 2 2v.45L89.63 65H93v5h-3.29L93 72.48V73a2 2 0 0 1-2 2h-1.26L85 71.42V75h-5v-3.58L75.26 75H74a2 2 0 0 1-2-2v-.52L75.29 70H72v-5h3.37L72 62.45V62a2 2 0 0 1 2-2h1.34L80 63.52V60h5v3.52z"
          fill="#f6f9fc"/>
    <path d="M84 69v6h-3v-6h-9v-3h9v-6h3v6h9v3zm.5-3.5v-.22l6.93-5.23a2 2 0 0 1 1.14.72l-6.26 4.73zm-12.29-4.37a2 2 0 0 1 .9-.91l7 5.28H78zm8.29 8.37v.22L73.57 75a2 2 0 0 1-1.14-.72l6.26-4.78zm12.29 4.37a2 2 0 0 1-.89.91l-7-5.28H87z"
          fill="#e25950"/>
    <path d="M105 60h17a2 2 0 0 1 2 2v5.5h-21V62a2 2 0 0 1 2-2z" fill="#f6f9fc"/>
    <path d="M122 61a1 1 0 0 1 1 1v5.5h1V62a2 2 0 0 0-2-2h-17a2 2 0 0 0-2 2v5.5h1V62a1 1 0 0 1 1-1h17" fill="#eaeef3"/>
    <path d="M107.5 67.5a4 4 0 0 1 8 0zm4 0H103V73a2 2 0 0 0 2 2h17a2 2 0 0 0 2-2v-5.5h-4.5" fill="#e25950"/>
    <path d="M115.5 67.5a4 4 0 0 1-8 0z" fill="#fff"/>
    <path fill="#f6f9fc" d="M134 64h21v7h-21z"/>
    <path d="M136 60a2 2 0 0 0-2 2v2h21v-2a2 2 0 0 0-2-2z" fill="#e25950"/>
    <path fill="#43458b" d="M134 65h21v5h-21z"/>
    <path d="M134 71v2a2 2 0 0 0 2 2h17a2 2 0 0 0 2-2v-2z" fill="#24b47e"/>
    <path d="M184 60h-17a2 2 0 0 0-2 2v11a2 2 0 0 0 2 2h17a2 2 0 0 0 2-2V62a2 2 0 0 0-2-2z" fill="#555abf"/>
    <path fill="#f6f9fc" d="M165 64h10v2h-10z"/>
    <path fill="#f6f9fc" d="M171 60v10h-2V60zm4 2h11v2h-11z"/>
    <path fill="#eaeef3" d="M185 62h1v2h-1z"/>
    <path fill="#f6f9fc" d="M175 66h11v2h-11z"/>
    <path fill="#eaeef3" d="M185 66h1v2h-1z"/>
    <path fill="#f6f9fc" d="M165 70h21v2h-21z"/>
    <path fill="#eaeef3" d="M185 70h1v2h-1z"/>
    <path d="M198 60a2 2 0 0 0-2 2v11a2 2 0 0 0 2 2h5V60zm12 0v15h5a2 2 0 0 0 2-2V62a2 2 0 0 0-2-2z" fill="#45b2e8"/>
    <path fill="#f6f9fc" d="M203 60h7v15h-7z"/>
    <path d="M206.5 69a1.5 1.5 0 1 1 1.5-1.5 1.5 1.5 0 0 1-1.5 1.5zm0-2a.5.5 0 1 0 .5.5.5.5 0 0 0-.5-.5z"
          fill="#24b47e"/>
    <path fill="#eaeef3" d="M203 75v-1h7v1zm0-14v-1h7v1z"/>
    <rect x="228" y="61" width="19" height="13" rx="1.77" fill="#0172c6"/>
    <path d="M245.23 61a1.77 1.77 0 0 1 1.77 1.77v9.46a1.77 1.77 0 0 1-1.77 1.77h-15.46a1.77 1.77 0 0 1-1.77-1.77v-9.46a1.77 1.77 0 0 1 1.77-1.77h15.46m0-1h-15.46a2.77 2.77 0 0 0-2.77 2.77v9.46a2.77 2.77 0 0 0 2.77 2.77h15.46a2.77 2.77 0 0 0 2.77-2.77v-9.46a2.77 2.77 0 0 0-2.77-2.77z"
          fill="#e25950"/>
    <path fill="#fcd669" d="M238 71h-1l-2-2h5l-2 2z"/>
    <path fill="#9cdbff" d="M238 64h-1l-2.17 2.35L235 68h5l.21-1.58L238 64z"/>
    <path fill="#f6f9fc" d="M235.5 69h1l-1-2v2z"/>
    <path d="M238 67a4.38 4.38 0 0 1 1 3" fill="none" stroke="#0a9362" stroke-miterlimit="10" stroke-width=".5"/>
    <path d="M237.5 64.19c1 .67 2.5 2 2.5 3.31s-1.52 2.63-2.5 3.31c-1-.67-2.5-2-2.5-3.31s1.52-2.63 2.5-3.31m0-1.19s-3.5 2-3.5 4.5 3.5 4.5 3.5 4.5 3.5-2 3.5-4.5-3.5-4.5-3.5-4.5z"
          fill="#e25950"/>
    <circle cx="238" cy="67" r="1" fill="#0a9362"/>
    <path d="M260 60h17a2 2 0 0 1 2 2v11a2 2 0 0 1-2 2h-17a2 2 0 0 1-2-2V62a2 2 0 0 1 2-2z" fill="#e25950"/>
    <path d="M268.31 67.4a2.31 2.31 0 0 1 1.77-1.9c1.39-.5 2.73.89 2.92 1.68-.05 0-.15 0-.27-.1a.51.51 0 0 0-.56 0c-.38.26-.47.48-.92.63a1.21 1.21 0 0 1-1.25-.35 1.22 1.22 0 0 0-1.69 0m-.31.48a2.3 2.3 0 0 1-2.55.5c-1.4-.34-1.65-2.34-1.33-3.07.16 0 .14.57.6.59h.41a1.58 1.58 0 0 1 .7 0 1.21 1.21 0 0 1 .82 1 1.22 1.22 0 0 0 1.39 1m.36.09a2.32 2.32 0 0 1-.4 2.56c-.82 1.23-2.75.83-3.34.29 0-.16.58 0 .75-.38a3.28 3.28 0 0 1 .39-1 1.21 1.21 0 0 1 1.2-.49 1.22 1.22 0 0 0 1.36-1m.11-.31a2.3 2.3 0 0 1 2.36 1.09c.94 1.16 0 2.88-.7 3.29-.14-.08.23-.54-.14-.83s-.59-.29-.88-.67a1.22 1.22 0 0 1-.07-1.29 1.23 1.23 0 0 0-.57-1.59m-.47-.12a2.31 2.31 0 0 1-1.25-2.29c-.06-1.49 1.73-2.29 2.54-2.21.06.15-.51.29-.39.74s.3.6.3 1.07a1.21 1.21 0 0 1-.72 1.07 1.22 1.22 0 0 0-.48 1.62"
          fill="#fff"/>
    <path d="M291 60a2 2 0 0 0-2 2v3h21v-3a2 2 0 0 0-2-2z" fill="#45b2e8"/>
    <path fill="#f6f9fc" d="M289 65h21v5h-21z"/>
    <path d="M289 70v3a2 2 0 0 0 2 2h17a2 2 0 0 0 2-2v-3z" fill="#45b2e8"/>
    <path fill="#eaeef3" d="M289 65h1v5h-1zm20 0h1v5h-1z"/>
    <path d="M299 67.5a.5.5 0 1 1 .5.5.5.5 0 0 1-.5-.5zm-3-1a.5.5 0 1 1 .5.5.5.5 0 0 1-.5-.5zm0 2a.5.5 0 1 1 .5.5.5.5 0 0 1-.5-.5zm6 0a.5.5 0 1 1 .5.5.5.5 0 0 1-.5-.5zm0-2a.5.5 0 1 1 .5.5.5.5 0 0 1-.5-.5z"
          fill="#45b2e8"/>
    <path d="M322 60a2 2 0 0 0-2 2v6h21v-6a2 2 0 0 0-2-2z" fill="#43458b"/>
    <path d="M320 68v5a2 2 0 0 0 2 2h17a2 2 0 0 0 2-2v-5z" fill="#e25950"/>
    <path fill="#fff" d="M326 65h9v5h-9z"/>
    <path d="M334.9 70h-8.8c.45-1.14 2.41-2 4.4-2s3.95.86 4.4 2zm-5.4-4h2v1l-1 1-1-1z" fill="#24b47e"/>
    <path d="M328 67h1v1h-1zm4 0h1v1h-1zm-5-1h1v1h-1zm6 0h1v1h-1z" fill="#fcd669"/>
    <path d="M353 60a2 2 0 0 0-2 2v3h21v-3a2 2 0 0 0-2-2z" fill="#e25950"/>
    <path fill="#f6f9fc" d="M351 65h21v5h-21z"/>
    <path d="M351 70v3a2 2 0 0 0 2 2h17a2 2 0 0 0 2-2v-3z" fill="#24b47e"/>
    <path fill="#eaeef3" d="M351 65h1v5h-1zm20 0h1v5h-1z"/>
    <path d="M382 67v6a2 2 0 0 0 2 2h17a2 2 0 0 0 2-2v-6z" fill="#f6f9fc"/>
    <path d="M382.5 67.5V73a1.5 1.5 0 0 0 1.5 1.5h17a1.5 1.5 0 0 0 1.5-1.5v-5.5z" fill="none" stroke="#eaeef3"/>
    <path d="M384 60a2 2 0 0 0-2 2v6h21v-6a2 2 0 0 0-2-2z" fill="#e25950"/>
    <path fill="#f6f9fc" d="M419 60h9v15h-9V60z"/>
    <path d="M419 75v-1h9v1zm0-15h9v1h-9z" fill="#8898aa" opacity=".1" style="isolation:isolate"/>
    <path d="M415 60h5v15h-5a2 2 0 0 1-2-2V62a2 2 0 0 1 2-2z" fill="#24b47e"/>
    <path d="M432 75h-5V60h5a2 2 0 0 1 2 2v11a2 2 0 0 1-2 2z" fill="#f79a59"/>
    <path d="M445.49 60a1.5 1.5 0 0 0-1.49 1.5V63h21v-1.5a1.5 1.5 0 0 0-1.49-1.5z" fill="#43458b"/>
    <path fill="#f6f9fc" d="M445 63h19v9h-19z"/>
    <path d="M456.12 67.5L455 66h-1l-1.12 1.5L454 69h1zm.76 0L458 69h-2l-1.5 2.5L453 69h-2l1.12-1.5L451 66h2l1.5-2.5L456 66h2zM444 72v1.5a1.5 1.5 0 0 0 1.49 1.5h18a1.5 1.5 0 0 0 1.51-1.5V72z"
          fill="#43458b"/>
    <path fill="#eaeef3" d="M444 63h1v9h-1zm20 0h1v9h-1z"/>
    <rect width="21" height="15" rx="2" fill="#e25950" x="475" y="60"/>
    <path fill="#f6f9fc" fill-rule="evenodd"
          d="M484.57 72.98l1.19-1.62-1.97-2.48 2.85-1.57 2.7.63.5-.87.64-3.09.83-.1.25-.44-1.95.04-.63 3.09-2.5-.87-.97-3.01h-1l-3 1-.5-.67h-.5l1 1.68 3-1.01.5 2.51-2.5 2.08.38 1.02 1.66 1.99.27.41-.46.7.21.58z"/>
    <path d="M508 60a2 2 0 0 0-2 2v3h21v-3a2 2 0 0 0-2-2z" fill="#f79a59"/>
    <path fill="#fff" d="M506 65h21v5h-21z"/>
    <path d="M506 70v3a2 2 0 0 0 2 2h17a2 2 0 0 0 2-2v-3z" fill="#24b47e"/>
    <path d="M516.5 69a1.5 1.5 0 1 1 1.5-1.5 1.5 1.5 0 0 1-1.5 1.5zm0-2a.5.5 0 1 0 .5.5.5.5 0 0 0-.5-.5z"
          fill="#6772e5"/>
    <path fill="#eaeef3" d="M506 65h1v5h-1zm20 0h1v5h-1z"/>
    <path d="M12 85a2 2 0 0 0-2 2v3h21v-3a2 2 0 0 0-2-2z" fill="#e25950"/>
    <path fill="#fff" d="M10 90h21v5H10z"/>
    <path d="M10 95v3a2 2 0 0 0 2 2h17a2 2 0 0 0 2-2v-3z"/>
    <path d="M18 91h1v3h-1zm2 0h1v3h-1zm2 0h1v3h-1z" fill="#24b47e"/>
    <path fill="#eaeef3" d="M10 90h1v5h-1zm20 0h1v5h-1z"/>
    <path d="M43 85a2 2 0 0 0-2 2v3h21v-3a2 2 0 0 0-2-2z" fill="#24b47e"/>
    <path fill="#fff" d="M41 90h21v5H41z"/>
    <path d="M41 95v3a2 2 0 0 0 2 2h17a2 2 0 0 0 2-2v-3z" fill="#e25950"/>
    <circle cx="51.5" cy="92.5" r="1" fill="none" stroke="#e25950"/>
    <path d="M42 88.5a.5.5 0 1 1 .5.5.5.5 0 0 1-.5-.5zm2 0a.5.5 0 1 1 .5.5.5.5 0 0 1-.5-.5zm2 0a.5.5 0 1 1 .5.5.5.5 0 0 1-.5-.5zm2 0a.5.5 0 1 1 .5.5.5.5 0 0 1-.5-.5zm2 0a.5.5 0 1 1 .5.5.5.5 0 0 1-.5-.5zm2 0a.5.5 0 1 1 .5.5.5.5 0 0 1-.5-.5zm2 0a.5.5 0 1 1 .5.5.5.5 0 0 1-.5-.5zm2 0a.5.5 0 1 1 .5.5.5.5 0 0 1-.5-.5zm2 0a.5.5 0 1 1 .5.5.5.5 0 0 1-.5-.5zm2 0a.5.5 0 1 1 .5.5.5.5 0 0 1-.5-.5z"
          fill="#fff" opacity=".7" style="isolation:isolate"/>
    <path d="M42 96.5a.5.5 0 1 1 .5.5.5.5 0 0 1-.5-.5zm2 0a.5.5 0 1 1 .5.5.5.5 0 0 1-.5-.5zm2 0a.5.5 0 1 1 .5.5.5.5 0 0 1-.5-.5zm2 0a.5.5 0 1 1 .5.5.5.5 0 0 1-.5-.5zm2 0a.5.5 0 1 1 .5.5.5.5 0 0 1-.5-.5zm2 0a.5.5 0 1 1 .5.5.5.5 0 0 1-.5-.5zm2 0a.5.5 0 1 1 .5.5.5.5 0 0 1-.5-.5zm2 0a.5.5 0 1 1 .5.5.5.5 0 0 1-.5-.5zm2 0a.5.5 0 1 1 .5.5.5.5 0 0 1-.5-.5zm2 0a.5.5 0 1 1 .5.5.5.5 0 0 1-.5-.5z"
          fill="#fff" opacity=".5" style="isolation:isolate"/>
    <path fill="#eaeef3" d="M41 90h1v5h-1zm20 0h1v5h-1z"/>
    <rect width="21" height="15" rx="2" fill="#0172c6" x="72" y="85"/>
    <path fill="#f6f9fc" d="M93 91H79.58v-6h-3v6H72v3h4.58v6h3v-6H93v-3z"/>
    <path fill="#e25950" d="M93 92H78.58v-7h-1v7H72v1h5.58v7h1v-7H93v-1z"/>
    <path fill="#f6f9fc" d="M109 85h9v15h-9V85z"/>
    <path d="M109 100v-1h9v1zm0-15h9v1h-9z" fill="#8898aa" opacity=".1" style="isolation:isolate"/>
    <path d="M105 85h5v15h-5a2 2 0 0 1-2-2V87a2 2 0 0 1 2-2z" fill="#24b47e"/>
    <path d="M122 100h-5V85h5a2 2 0 0 1 2 2v11a2 2 0 0 1-2 2z" fill="#e25950"/>
    <rect width="21" height="15" rx="2" fill="#f6f9fc" x="134" y="85"/>
    <path d="M146 87.5c0 .83-1.5 2.5-1.5 2.5s-1.5-1.67-1.5-2.5a1.5 1.5 0 0 1 3 0z" fill="#e25950"/>
    <path d="M153 86a1 1 0 0 1 1 1v11a1 1 0 0 1-1 1h-17a1 1 0 0 1-1-1V87a1 1 0 0 1 1-1h17m0-1h-17a2 2 0 0 0-2 2v11a2 2 0 0 0 2 2h17a2 2 0 0 0 2-2V87a2 2 0 0 0-2-2z"
          fill="#eaeef3"/>
    <path d="M146.17 92.11l8.52-6.17A2 2 0 0 0 153 85h-.42l-8.14 5.89L136 85a2 2 0 0 0-1.81 1.16l8.53 6-8.72 6.25a2 2 0 0 0 1.4 1.49l9-6.55 9.3 6.5a2 2 0 0 0 1.3-1.59z"
          fill="#e25950"/>
    <path d="M185.22 85.43l-.09.07-9.63 5.5-9.63-5.5-.09-.07A2 2 0 0 0 165 87v1l8 4.5-8 4.5v1a2 2 0 0 0 .78 1.57l.09-.07 9.63-5.5 9.63 5.5.09.07A2 2 0 0 0 186 98v-1l-8-4.5 8-4.5v-1a2 2 0 0 0-.78-1.57z"
          fill="#fcd669"/>
    <path d="M175.5 91l9.63-5.5.09-.07A2 2 0 0 0 184 85h-17a2 2 0 0 0-1.22.43l.09.07zm0 3l-9.63 5.5-.09.07a2 2 0 0 0 1.22.43h17a2 2 0 0 0 1.22-.43l-.09-.07z"
          fill="#24b47e"/>
    <path d="M165 88v9l8-4.5-8-4.5zm21 9v-9l-8 4.5 8 4.5z"/>
    <path fill="#f6f9fc" d="M196 90h21v5h-21z"/>
    <path d="M217 87a2 2 0 0 0-2-2h-17a2 2 0 0 0-1.33.51.91.91 0 0 1 .14.07L203 90h14z"/>
    <path d="M196.67 99.48a2 2 0 0 0 1.33.52h17a2 2 0 0 0 2-2v-3h-14l-6.19 4.42a.42.42 0 0 1-.14.06z" fill="#24b47e"/>
    <path d="M203 90l-6.19-4.42a.91.91 0 0 0-.14-.07A2 2 0 0 0 196 87v11a2 2 0 0 0 .67 1.48.42.42 0 0 0 .14-.06L203 95l3.5-2.5z"
          fill="#e25950"/>
    <circle cx="199.5" cy="92.5" r="1.5" fill="#f6f9fc"/>
    <path fill="#eaeef3" d="M216 90h1v5h-1z"/>
    <path d="M229 85h17a2 2 0 0 1 2 2v11a2 2 0 0 1-2 2h-17a2 2 0 0 1-2-2V87a2 2 0 0 1 2-2z" fill="#f6f9fc"/>
    <path d="M246 100h-17a2 2 0 0 1-2-2V87a2 2 0 0 1 2-2h17a2 2 0 0 1 2 2v11a2 2 0 0 1-2 2zm1-13a1 1 0 0 0-1-1h-17a1 1 0 0 0-1 1v11a1 1 0 0 0 1 1h17a1 1 0 0 0 1-1z"
          fill="#8898aa" opacity=".2" style="isolation:isolate"/>
    <path d="M237.5 89a3.5 3.5 0 1 1-3.5 3.5 3.5 3.5 0 0 1 3.5-3.5z" fill="#e25950"/>
    <rect width="21" height="15" rx="2" fill="#e25950" x="258" y="85"/>
    <path d="M271.5 96a.5.5 0 1 1 .5-.5.5.5 0 0 1-.5.5zm-6-6a.5.5 0 1 1 .5-.5.5.5 0 0 1-.5.5zm6 0a.5.5 0 1 1 .5-.5.5.5 0 0 1-.5.5zm-6 6a.5.5 0 1 1 .5-.5.5.5 0 0 1-.5.5zm3-7a.5.5 0 1 1 .5-.5.5.5 0 0 1-.5.5zm-4 4a.5.5 0 1 1 .5-.5.5.5 0 0 1-.5.5zm4 4a.5.5 0 1 1 .5-.5.5.5 0 0 1-.5.5zm4-4a.5.5 0 1 1 .5-.5.5.5 0 0 1-.5.5zm-4 2a2.5 2.5 0 1 1 2.5-2.5 2.5 2.5 0 0 1-2.5 2.5z"
          fill="#fedc32"/>
    <rect width="21" height="15" rx="3" fill="#fcd669" x="289" y="85"/>
    <rect x="289.5" y="85.5" width="20" height="14" rx="3" fill="none" stroke="#000" stroke-opacity=".08"/>
    <path d="M310 88l-18 12h-2a1 1 0 0 1-1-1v-2l18-12h2a1 1 0 0 1 1 1z"/>
    <path d="M291 85a2 2 0 0 0-2 2v8l15-10z" fill="#24b47e"/>
    <path d="M310 98a2 2 0 0 1-2 2h-13l15-10z" fill="#e25950"/>
    <circle cx="296.5" cy="94.5" r="1.5" fill="#fff"/>
    <circle cx="302.5" cy="90.5" r="1.5" fill="#fff"/>
    <path fill="#f6f9fc" d="M320 88h21v9h-21z"/>
    <path d="M321.49 85a1.5 1.5 0 0 0-1.49 1.5V88h21v-1.5a1.5 1.5 0 0 0-1.49-1.5z" fill="#43458b"/>
    <path fill="#e25950" d="M320 89h21v7h-21z"/>
    <path d="M320 97v1.5a1.5 1.5 0 0 0 1.49 1.5h18a1.5 1.5 0 0 0 1.51-1.5V97z" fill="#43458b"/>
    <path d="M325.5 94a1.5 1.5 0 1 0-1.5-1.5 1.5 1.5 0 0 0 1.5 1.5z" fill="#fff"/>
    <path d="M353 85h17a2 2 0 0 1 2 2v11a2 2 0 0 1-2 2h-17a2 2 0 0 1-2-2V87a2 2 0 0 1 2-2z" fill="#f6f9fc"/>
    <path d="M353 85h17a2 2 0 0 1 2 2v11a2 2 0 0 1-2 2h-17a2 2 0 0 1-2-2V87a2 2 0 0 1 2-2zm0 1a1 1 0 0 0-1 1v11a1 1 0 0 0 1 1h17a1 1 0 0 0 1-1V87a1 1 0 0 0-1-1z"
          fill="#dfe5eb"/>
    <path d="M358 92.5a3.5 3.5 0 0 1 7 0 3.41 3.41 0 0 1-.34 1.5h-6.32a3.41 3.41 0 0 1-.34-1.5z" fill="#e25950"/>
    <path d="M365 88.21V88h1.21l1.29 1.79V90h-1.21zm-9.5 1.58l1.29-1.79H358v.21L356.71 90h-1.21zm9.5 7l1.29-1.79h1.21v.21L366.21 97H365zm-9.5-1.58V95h1.21l1.29 1.79V97h-1.21z"
          fill-opacity=".9"/>
    <path d="M363.18 91.74a1.73 1.73 0 0 1 1.82 1.37 3.49 3.49 0 0 1-3.43 2.89 3.65 3.65 0 0 1-3.16-1.86 3.38 3.38 0 0 1-.41-1.61 3.31 3.31 0 0 1 .39-1.53v.15c0 .68 0 2.09 1.69 2.09s1.65-1.5 3.1-1.5z"
          fill="#43458b"/>
    <path d="M384 85v5h19v-3a2 2 0 0 0-2-2z" fill="#24b47e"/>
    <path fill="#f6f9fc" d="M383 90h20v5h-20z"/>
    <path d="M384 95v5h17a2 2 0 0 0 2-2v-3z" fill="#e25950"/>
    <path d="M390 90v5l-6 5a2 2 0 0 1-2-2V87a2 2 0 0 1 2-2z"/>
    <path fill="#eaeef3" d="M402 90h1v5h-1z"/>
    <rect width="21" height="15" rx="2" fill="#1cafc8" x="413" y="85"/>
    <circle cx="423.5" cy="92.5" r="3.5" fill="#fcd669"/>
    <path fill="#047a9d" fill-opacity=".2" opacity=".78" style="isolation:isolate" d="M414 88h4v9h-4z"/>
    <path d="M415 89h2v1h-2zm0 2h2v1h-2zm0 2h2v1h-2zm0 2h2v1h-2z" fill="#fcd669"/>
    <path d="M446 85a2 2 0 0 0-2 2v2h21v-2a2 2 0 0 0-2-2z" fill="#e25950"/>
    <path fill="#43458b" d="M444 89h21v7h-21z"/>
    <path d="M444 96v2a2 2 0 0 0 2 2h17a2 2 0 0 0 2-2v-2z" fill="#e25950"/>
    <circle cx="454.5" cy="92.5" r="1.5" fill="#fff"/>
    <path d="M477 85a2 2 0 0 0-2 2v2h21v-2a2 2 0 0 0-2-2z" fill="#e25950"/>
    <path fill="#f6f9fc" d="M475 89h21v7h-21z"/>
    <path d="M475 96v2a2 2 0 0 0 2 2h17a2 2 0 0 0 2-2v-2z" fill="#e25950"/>
    <path d="M486 94v1h-1v-1h-2l2.5-4 2.5 4z" fill="#24b47e"/>
    <path fill="#eaeef3" d="M475 89h1v7h-1zm20 0h1v7h-1z"/>
    <rect width="21" height="15" rx="2" fill="#45b2e8" x="506" y="85"/>
    <path fill="#fff" d="M516.5 87L511 98h11l-5.5-11z"/>
    <path d="M516.5 90l-4 8h8l-4-8z"/>
    <path fill="#fcd669" d="M516.5 93.8L511 98h11l-5.5-4.2z"/>
    <path d="M12 110a2 2 0 0 0-2 2v3h21v-3a2 2 0 0 0-2-2z" fill="#555abf"/>
    <path fill="#f6f9fc" d="M10 115h21v5H10z"/>
    <path d="M10 120v3a2 2 0 0 0 2 2h17a2 2 0 0 0 2-2v-3z" fill="#24b47e"/>
    <path d="M20.5 116l-1.86 2.23c-.35.42-.2.77.36.77h3c.55 0 .71-.34.36-.77z"/>
    <path fill="#eaeef3" d="M10 115h1v5h-1zm20 0h1v5h-1z"/>
    <path d="M43 110a2 2 0 0 0-2 2v3h21v-3a2 2 0 0 0-2-2z" fill="#fcd669"/>
    <path fill="#24b47e" d="M41 115h21v5H41z"/>
    <path d="M41 120v3a2 2 0 0 0 2 2h17a2 2 0 0 0 2-2v-3z" fill="#e25950"/>
    <path fill="#f6f9fc" d="M72 114h21v7H72v-7z"/>
    <path d="M92 121v-7h1v7zm-20-7h1v7h-1z" fill="#8898aa" opacity=".1" style="isolation:isolate"/>
    <path d="M72 123v-3h21v3a2 2 0 0 1-2 2H74a2 2 0 0 1-2-2z" fill="#45b2e8"/>
    <path d="M93 112v3H72v-3a2 2 0 0 1 2-2h17a2 2 0 0 1 2 2z" fill="#e25950"/>
    <path d="M104.995 110a1.992 1.992 0 0 0-1.995 2v4h21v-4a2 2 0 0 0-1.995-2z" fill="#b1372f"/>
    <path fill="#f8fafc" d="M103 116h21v3h-21z"/>
    <path d="M103 119v4a2 2 0 0 0 1.995 2h17.01a1.992 1.992 0 0 0 1.995-2v-4z" fill="#b1372f"/>
    <path fill="#eaeef3" d="M103 116h1.001v3H103zm19.999 0H124v3h-1.001z"/>
    <rect width="21" height="15" rx="2" fill="#e25950" x="134" y="110"/>
    <path fill="none" stroke="#24b47e" stroke-linecap="round" stroke-linejoin="round"
          d="M144.5 112.5l3 9-8-6h10l-8 6 3-9z"/>
    <path d="M167 110a2 2 0 0 0-2 2v11a2 2 0 0 0 2 2h5v-15z" fill="#f6f9fc"/>
    <path d="M167 111a1 1 0 0 0-1 1v11a1 1 0 0 0 1 1h9v1h-9a2 2 0 0 1-2-2v-11a2 2 0 0 1 2-2h9v1z" fill="#8898aa"
          opacity=".2" style="isolation:isolate"/>
    <path d="M184.14 110a2.1 2.1 0 0 1 1.86 2.28V118h-14v-8z" fill="#e25950"/>
    <path d="M186 123.26a1.8 1.8 0 0 1-1.86 1.74H172v-7h14z" fill="#24b47e"/>
    <rect width="21" height="15" rx="2" fill="#fcd669" x="196" y="110"/>
    <path d="M216 116.14l1-.14v-3.76l-1 .38-6.5 2.48-.5-.88 4.61-3.22 1.39-1h-7l-.25 1-.75 3h-1l-.75-3-.25-1h-7l1.46 1 4.54 3.22-.47.88-6.53-2.5-1-.37V112v4l1 .14 6 .86v1l-6 .86-1 .14v4.09-.24l1-.37 6.57-2.48.47.88-4.46 3.12-1.42 1H205l.25-1 .75-3h1l.75 3 .25 1h6.91l-1.42-1-4.49-3.14.5-.86 6.5 2.46 1 .38V119l-1-.14-6-.86v-1zm-9.5 3.86a2.5 2.5 0 1 1 2.5-2.5 2.5 2.5 0 0 1-2.5 2.5z"
          fill="#e25950"/>
    <path d="M229 110a2 2 0 0 0-2 2v11a2 2 0 0 0 2 2h5v-15z" fill="#24b47e"/>
    <path d="M241 110v15h5a2 2 0 0 0 2-2v-11a2 2 0 0 0-2-2z" fill="#e25950"/>
    <path fill="#fcd669" d="M234 110h7v15h-7zM260 110a2 2 0 0 0-2 2v3h21v-3a2 2 0 0 0-2-2z"/>
    <path fill="#24b47e" d="M258 115h21v5h-21z"/>
    <path d="M258 120v3a2 2 0 0 0 2 2h17a2 2 0 0 0 2-2v-3z" fill="#e25950"/>
    <path d="M272.63 116H270a.38.38 0 0 1-.35-.26l-.81-2.49a.37.37 0 0 0-.7 0l-.8 2.5a.37.37 0 0 1-.34.25h-2.63a.37.37 0 0 0-.22.67l2.13 1.54a.36.36 0 0 1 .13.41l-.81 2.5a.37.37 0 0 0 .13.41.38.38 0 0 0 .43 0l2.13-1.43a.38.38 0 0 1 .43 0l2.12 1.43a.38.38 0 0 0 .43 0 .35.35 0 0 0 .13-.41l-.81-2.5a.36.36 0 0 1 .13-.41l2.13-1.54a.37.37 0 0 0 .15-.41.38.38 0 0 0-.37-.26z"
          fill="#fff"/>
    <path d="M308 125h-17a2 2 0 0 1-2-2v-11a2 2 0 0 1 2-2h17a2 2 0 0 1 2 2v11a2 2 0 0 1-2 2zm1-13a1 1 0 0 0-1-1h-17a1 1 0 0 0-1 1v11a1 1 0 0 0 1 1h17a1 1 0 0 0 1-1z"
          fill="#8898aa" opacity=".2" style="isolation:isolate"/>
    <path d="M299 110v15h9a2 2 0 0 0 2-2v-11a2 2 0 0 0-2-2z" fill="#e25950"/>
    <path d="M295 114h2v2h-2v2h-2v-2h-2v-2h2v-2h2z" fill="#9c9b9a" fill-opacity=".5"/>
    <path fill="#f6f9fc" d="M326 110h9v15h-9v-15z"/>
    <path d="M326 125v-1h9v1zm0-15h9v1h-9z" fill="#8898aa" opacity=".1" style="isolation:isolate"/>
    <path d="M322 110h5v15h-5a2 2 0 0 1-2-2v-11a2 2 0 0 1 2-2z" fill="#24b47e"/>
    <path d="M339 125h-5v-15h5a2 2 0 0 1 2 2v11a2 2 0 0 1-2 2z" fill="#e25950"/>
    <path d="M328.58 118a1.91 1.91 0 0 0 3.82 0h.86a2.77 2.77 0 0 1-1.37 2.43 2.75 2.75 0 0 1-4.14-2.43h.83z"
          fill="#24b47e"/>
    <path d="M330.5 116a1.51 1.51 0 0 1 1.3.75 1.49 1.49 0 0 1 0 1.5 1.5 1.5 0 1 1-1.3-2.25z" fill="#b5562b"/>
    <path d="M369.81 125h-16.62a2.17 2.17 0 0 1-2.19-2.16v-6.37h8.78V110h10a2.17 2.17 0 0 1 2.22 2.16v10.68a2.17 2.17 0 0 1-2.19 2.16z"
          fill="#e25950"/>
    <path d="M351 121.85h21v1.08h-21zm0-2.15h21v1.08h-21zm0-2.16h21v1.08h-21zm8.78-2.15H372v1.08h-12.22zm0-2.16H372v1.08h-12.22zm0-2.15h11.91a2.05 2.05 0 0 1 .31 1.08h-12.22zM369.81 125h-16.7a2.15 2.15 0 0 1-1.75-1h20.27a2.08 2.08 0 0 1-1.82 1z"
          fill="#f6f9fc"/>
    <path d="M369.81 125h-16.62a2.17 2.17 0 0 1-2.19-2.16v-6.37h1.1v6.37a1.08 1.08 0 0 0 1.09 1.08h16.62a1.08 1.08 0 0 0 1.09-1.08v-10.68a1.08 1.08 0 0 0-1.09-1.08h-10V110h10a2.17 2.17 0 0 1 2.19 2.16v10.68a2.15 2.15 0 0 1-.8 1.67 2.18 2.18 0 0 1-1.39.49z"
          fill="#e25950" opacity=".2" style="isolation:isolate"/>
    <path d="M362 110h-8.81a2 2 0 0 0-2.19 1.72v6.89h11z" fill="#555abf"/>
    <g fill="#fcd669">
        <path d="M356.82 116.62a2.43 2.43 0 0 1-2.37-1.73 2.38 2.38 0 0 1 1.07-2.71 2.44 2.44 0 0 1 2.92.3 3.09 3.09 0 0 0-3.75-1 3 3 0 0 0 1.25 5.79 3 3 0 0 0 2.5-1.27 2.4 2.4 0 0 1-1.62.62z"/>
        <path fill-rule="evenodd"
              d="M359.23 112.57l.19.85.55-.69-.21.85.79-.39-.56.68.89-.01-.8.36.8.37-.89-.01.56.68-.79-.39.21.85-.55-.69-.19.85-.18-.85-.55.69.21-.85-.79.39.55-.68-.88.01.8-.37-.8-.36.88.01-.55-.68.79.39-.21-.85.55.69.18-.85z"/>
    </g>
    <path fill="#f6f9fc" d="M385 125h3l15-10v-2l-18 12zm12-15l-15 10v2l18-12h-3z"/>
    <path d="M400 110l-18 12a3 3 0 0 0 3 3l18-12a3 3 0 0 0-3-3z" fill="#e25950"/>
    <path d="M385 110a3 3 0 0 0-3 3v7l15-10zm-1 4v-2h2v2z" fill="#43458b"/>
    <path d="M400 125a3 3 0 0 0 3-3v-7l-15 10z" fill="#24b47e"/>
    <path fill="#fcd669" d="M384 112h2v2h-2z"/>
    <path d="M415 110a2 2 0 0 0-2 2v3h21v-3a2 2 0 0 0-2-2z" fill="#e25950"/>
    <path fill="#fff" d="M413 115h21v5h-21z"/>
    <path d="M413 120v3a2 2 0 0 0 2 2h17a2 2 0 0 0 2-2v-3z" fill="#24b47e"/>
    <circle cx="423.5" cy="117.5" r="1.5" fill="#e25950"/>
    <path fill="#eaeef3" d="M413 115h1v5h-1zm20 0h1v5h-1z"/>
    <path d="M446 110a2 2 0 0 0-2 2v11a2 2 0 0 0 2 2h5v-15zm12 0v15h5a2 2 0 0 0 2-2v-11a2 2 0 0 0-2-2z" fill="#24b47e"/>
    <path fill="#f6f9fc" d="M451 110h7v15h-7z"/>
    <path fill="#eaeef3" d="M451 125v-1h7v1zm0-14v-1h7v1z"/>
    <path d="M477 110a2 2 0 0 0-2 2v3h21v-3a2 2 0 0 0-2-2z" fill="#43458b"/>
    <path fill="#fff" d="M475 115h21v5h-21z"/>
    <path d="M475 120v3a2 2 0 0 0 2 2h17a2 2 0 0 0 2-2v-3z" fill="#43458b"/>
    <path d="M485.5 119a1.5 1.5 0 1 1 1.5-1.5 1.5 1.5 0 0 1-1.5 1.5zm0-2a.5.5 0 1 0 .5.5.5.5 0 0 0-.5-.5z"
          fill="#fcd669"/>
    <path fill="#eaeef3" d="M475 115h1v5h-1zm20 0h1v5h-1z"/>
    <path fill="#f6f9fc" d="M506 114h21v7h-21v-7z"/>
    <path d="M526 121v-7h1v7zm-20-7h1v7h-1z" fill="#8898aa" opacity=".1" style="isolation:isolate"/>
    <path d="M527 112v3h-21v-3a2 2 0 0 1 2-2h17a2 2 0 0 1 2 2z" fill="#e25950"/>
    <path d="M506 123v-3h21v3a2 2 0 0 1-2 2h-17a2 2 0 0 1-2-2z" fill="#6772e5"/>
    <path d="M12 135h17a2 2 0 0 1 2 2v11a2 2 0 0 1-2 2H12a2 2 0 0 1-2-2v-11a2 2 0 0 1 2-2z" fill="#e25950"/>
    <path fill="#f6f9fc" d="M31 144H19v6h-3v-6h-6v-3h6v-6h3v6h12v3z"/>
    <path d="M30 144v-3h1v3zm-14 5h3v1h-3zm0-14h3v1h-3zm-6 6h1v3h-1z" fill="#555abf" opacity=".1"
          style="isolation:isolate"/>
    <path fill="#555abf" d="M31 143H18v7h-1v-7h-7v-1h7v-7h1v7h13v1z"/>
    <path d="M43 135h17a2 2 0 0 1 2 2v11a2 2 0 0 1-2 2H43a2 2 0 0 1-2-2v-11a2 2 0 0 1 2-2z" fill="#43458b"/>
    <path d="M41 140.66l3.5-2.4 5.43 3.74h-1.77l-3.66-2.52-3.5 2.4zm9-5.57v1.22l-3.5 2.4-4.76-3.27a2 2 0 0 1 1.12-.44l3.64 2.5z"
          fill="#f6f9fc"/>
    <path d="M49.91 142l-3.66-2.51-3.66 2.51H41v-.12l5.25-3.6 3.75 2.57V142zm-5.16-3.28l-3.6-2.47a2 2 0 0 1 .6-.8l3 2.06 3.66-2.51H50v.12z"
          fill="#e25950"/>
    <path fill="#f6f9fc" d="M50 139.63h-3.37V142h-2.25v-2.37H41v-2.25h3.38V135h2.25v2.38H50v2.25z"/>
    <path fill="#e25950" d="M50 139h-4v3h-1v-3h-4v-1h4v-3h1v3h4v1z"/>
    <path d="M57.22 141.44a1.22 1.22 0 0 1-1.09-1.84 1.25 1.25 0 0 1 1.09-.6 1.22 1.22 0 0 1 0 2.44zm-2-2a1.22 1.22 0 0 1-1.09-1.84 1.25 1.25 0 0 1 1.09-.6 1.22 1.22 0 0 1 0 2.44zm-.78 1.78a1.22 1.22 0 1 1-2.44 0 1.22 1.22 0 0 1 2.44 0zm.78 3.78a1.22 1.22 0 1 1 0 2.44 1.22 1.22 0 0 1 0-2.44z"
          fill="#f6f9fc"/>
    <path d="M57.19 140.87a.68.68 0 0 1-.69-.68.69.69 0 1 1 1.37 0 .67.67 0 0 1-.68.68zm-2 6a.69.69 0 1 1 .69-.69.69.69 0 0 1-.69.7zm0-8a.69.69 0 0 1-.6-1 .69.69 0 0 1 1.28.35.67.67 0 0 1-.68.65zm-2 3a.68.68 0 0 1-.69-.68.69.69 0 0 1 .69-.69.7.7 0 0 1 .62.33.75.75 0 0 1 0 .71.7.7 0 0 1-.62.33z"
          fill="#e25950"/>
    <path d="M76 135v6h17v-4a2 2 0 0 0-2-2z" fill="#f6f9fc"/>
    <path d="M92.5 142.5V137a1.5 1.5 0 0 0-1.5-1.5H74" fill="none" stroke="#eaeef3"/>
    <path d="M77 140v-5h-3a2 2 0 0 0-2 2v11a2 2 0 0 0 2 2h3v-5h16v-5z" fill="#e25950"/>
    <path d="M77 145v5h14a2 2 0 0 0 2-2v-3z" fill="#24b47e"/>
    <path d="M74.5 137a.5.5 0 0 1 .5.5.5.5 0 0 1-.5.5.5.5 0 0 1-.5-.5.5.5 0 0 1 .5-.5z" fill="#fff"/>
    <path d="M105 135a2 2 0 0 0-2 2v6h11v-8z" fill="#f7fafc"/>
    <path d="M103.5 142.5h10v-7H105a1.5 1.5 0 0 0-1.5 1.5z" fill="none" stroke="#e6e9ed"/>
    <path d="M113 142v8h9a2 2 0 0 0 2-2v-6z" fill="#f7fafc"/>
    <path d="M113.5 142.5v7h8.5a1.5 1.5 0 0 0 1.5-1.5v-5.5z" fill="none" stroke="#e6e9ed"/>
    <path d="M120.79 145.32h-1.15a.15.15 0 0 1-.15-.11l-.36-1.1a.16.16 0 0 0-.13-.11.18.18 0 0 0-.16.11l-.35 1.1a.15.15 0 0 1-.15.11h-1.18a.15.15 0 0 0-.15.11.16.16 0 0 0 .06.18l.93.68a.16.16 0 0 1 .06.18l-.36 1.09a.18.18 0 0 0 .06.19.15.15 0 0 0 .19 0l.93-.62a.17.17 0 0 1 .19 0l.93.62a.15.15 0 0 0 .19 0 .18.18 0 0 0 .06-.19l-.36-1.09a.17.17 0 0 1 .06-.18l.94-.68a.16.16 0 0 0-.1-.29z"
          fill="#e25950"/>
    <path d="M109.75 138.35h-1.14a.15.15 0 0 1-.15-.11l-.36-1.08a.15.15 0 0 0-.3 0l-.35 1.08a.16.16 0 0 1-.15.11h-1.14a.15.15 0 0 0-.16.11.16.16 0 0 0 .06.18l.94.67a.16.16 0 0 1 .06.17l-.37 1.09a.16.16 0 0 0 .06.18.15.15 0 0 0 .19 0l.92-.61a.17.17 0 0 1 .19 0l.95.6a.15.15 0 0 0 .19 0 .16.16 0 0 0 0-.18l-.33-1.08a.15.15 0 0 1 .06-.17l.92-.67a.16.16 0 0 0 .06-.18.15.15 0 0 0-.15-.11zM103 143v5a2 2 0 0 0 2 2h9v-7z"
          fill="#217ab7"/>
    <path d="M113 135v8h11v-6a2 2 0 0 0-2-2zM136 135a2 2 0 0 0-2 2v11a2 2 0 0 0 2 2h5v-15zm12 0v15h5a2 2 0 0 0 2-2v-11a2 2 0 0 0-2-2z"
          fill="#e25950"/>
    <path fill="#f6f9fc" d="M141 135h7v15h-7z"/>
    <path fill="#eaeef3" d="M141 150v-1h7v1zm0-14v-1h7v1z"/>
    <path d="M186 137a2 2 0 0 0-2-2h-17a2 2 0 0 0-1.31.49l19.62 14A2 2 0 0 0 186 148z" fill="#e25950"/>
    <path d="M165.69 135.49A2 2 0 0 0 165 137v11a2 2 0 0 0 2 2h17a2 2 0 0 0 1.3-.49z"/>
    <path d="M171.5 143a.5.5 0 0 1 .5.5.5.5 0 0 1-.5.5.5.5 0 0 1-.5-.5.5.5 0 0 1 .5-.5z" fill="#fff" fill-opacity=".8"/>
    <path d="M170.5 145a.5.5 0 0 1 .5.5.5.5 0 0 1-.5.5.5.5 0 0 1-.5-.5.5.5 0 0 1 .5-.5z" fill="#fff" fill-opacity=".3"/>
    <path d="M168.5 144a.5.5 0 0 1 .5.5.5.5 0 0 1-.5.5.5.5 0 0 1-.5-.5.5.5 0 0 1 .5-.5zm1 3a.5.5 0 0 1 .5.5.5.5 0 0 1-.5.5.5.5 0 0 1-.5-.5.5.5 0 0 1 .5-.5z"
          fill="#fff" fill-opacity=".9"/>
    <path d="M169.5 141a.5.5 0 0 1 .5.5.5.5 0 0 1-.5.5.5.5 0 0 1-.5-.5.5.5 0 0 1 .5-.5z" fill="#fff"/>
    <path d="M180 139v-1.29c0-.56.35-.75.8-.42l2.9 2.12c.44.33.35.59-.2.59H181v1.51c0 .53-.35.72-.78.38l-2.94-2.28c-.43-.34-.28-.61.22-.61z"
          fill="#fac92e"/>
    <path d="M197.42 135.1l9.58 7.4-9.58 7.4A2 2 0 0 1 196 148v-11a2 2 0 0 1 1.42-1.9z" fill="#f6f9fc"/>
    <path d="M198 136a1 1 0 0 0-1 1v11a1 1 0 0 0 1 1h1v1h-1a2 2 0 0 1-2-2v-11a2 2 0 0 1 2-2h1v1z" fill="#8898aa"
          opacity=".2" style="isolation:isolate"/>
    <path d="M215 150h-17a2 2 0 0 1-1.29-.48L207 142.5l-.73-.5H217v6a2 2 0 0 1-2 2z" fill="#e25950"/>
    <path d="M196.71 135.48A2 2 0 0 1 198 135h17a2 2 0 0 1 2 2v5.5h-10z" fill="#555abf"/>
    <path d="M200.51 140a2.5 2.5 0 1 1-1.77 4.27 2.55 2.55 0 0 1-.74-1.77 2.5 2.5 0 0 1 2.51-2.5z" fill="#f5be58"/>
    <path d="M229 135h17a2 2 0 0 1 2 2v11a2 2 0 0 1-2 2h-17a2 2 0 0 1-2-2v-11a2 2 0 0 1 2-2z" fill="#f6f9fc"/>
    <path d="M246 150h-17a2 2 0 0 1-2-2v-11a2 2 0 0 1 2-2h17a2 2 0 0 1 2 2v11a2 2 0 0 1-2 2zm1-13a1 1 0 0 0-1-1h-17a1 1 0 0 0-1 1v11a1 1 0 0 0 1 1h17a1 1 0 0 0 1-1z"
          fill="#8898aa" opacity=".2" style="isolation:isolate"/>
    <path d="M233 135v15h13a2 2 0 0 0 2-2v-11a2 2 0 0 0-2-2z" fill="#24b47e"/>
    <path d="M239.94 137a4.21 4.21 0 0 0-2.07 3.57 4.48 4.48 0 0 0 4.66 4.29 4.87 4.87 0 0 0 2.47-.66 4.73 4.73 0 0 1-4.25 2.8 4.9 4.9 0 0 1-4.75-5 5 5 0 0 1 3.94-5z"
          fill="#fff"/>
    <circle cx="243" cy="140" r="1" fill="#fff"/>
    <path fill="#fff" d="M259 135.89h19v6.35h-19z"/>
    <path d="M258.5 142.5h20V137a1.5 1.5 0 0 0-1.5-1.5h-17a1.5 1.5 0 0 0-1.5 1.5z" fill="none" stroke="#dfe5eb"/>
    <path d="M258 142v6a2 2 0 0 0 2 2h17a2 2 0 0 0 2-2v-6zM291 135a2 2 0 0 0-2 2v3h21v-3a2 2 0 0 0-2-2z"
          fill="#e25950"/>
    <path fill="#f6f9fc" d="M289 140h21v5h-21z"/>
    <path fill="#eaeef3" d="M309 140h1v5h-1z"/>
    <path d="M289 145v3a2 2 0 0 0 2 2h17a2 2 0 0 0 2-2v-3z" fill="#e25950"/>
    <path d="M291 150l8-7.5-8-7.5a2 2 0 0 0-2 2v11a2 2 0 0 0 2 2z" fill="#555abf"/>
    <path fill="#f6f9fc"
          d="M292.5 140.29l.65 1.32 1.45.21-1.05 1.02.25 1.45-1.3-.68-1.3.68.25-1.45-1.05-1.02 1.45-.21.65-1.32z"/>
    <path d="M322 135a2 2 0 0 0-2 2v3h21v-3a2 2 0 0 0-2-2z"/>
    <path fill="#f6f9fc" d="M320 140h21v5h-21z"/>
    <path fill="#eaeef3" d="M340 140h1v5h-1z"/>
    <path d="M320 145v3a2 2 0 0 0 2 2h17a2 2 0 0 0 2-2v-3z" fill="#0a9362"/>
    <path d="M322 150l8-7.5-8-7.5a2 2 0 0 0-2 2v11a2 2 0 0 0 2 2z" fill="#e25950"/>
    <path d="M359 150h-6a2 2 0 0 1-2-2v-11a2 2 0 0 1 2-2h6z" fill="#24b47e"/>
    <path d="M370 150h-12v-15h12a2 2 0 0 1 2 2v11a2 2 0 0 1-2 2z" fill="#e25950"/>
    <path d="M361 142.5a3.53 3.53 0 1 0-3.53 3.5 3.53 3.53 0 0 0 3.53-3.5z" fill="#fcd669"/>
    <path d="M357.43 140a2.5 2.5 0 1 1-2.43 2.57v-.07a2.5 2.5 0 0 1 2.43-2.5z" fill="#e25950"/>
    <path d="M356.5 141h2v2a1 1 0 0 1-2 0z" fill="#f6f9fc"/>
    <path d="M384 135a2 2 0 0 0-2 2v3h21v-3a2 2 0 0 0-2-2z" fill="#e25950"/>
    <path fill="#fff" d="M382 140h21v5h-21z"/>
    <path d="M382 145v3a2 2 0 0 0 2 2h17a2 2 0 0 0 2-2v-3z" fill="#43458b"/>
    <path d="M392.5 144a1.5 1.5 0 1 1 1.5-1.5 1.5 1.5 0 0 1-1.5 1.5zm0-2a.5.5 0 1 0 .5.5.5.5 0 0 0-.5-.5z"
          fill="#e25950"/>
    <path fill="#eaeef3" d="M382 140h1v5h-1zm20 0h1v5h-1z"/>
    <path d="M415 135h17a2 2 0 0 1 2 2v11a2 2 0 0 1-2 2h-17a2 2 0 0 1-2-2v-11a2 2 0 0 1 2-2z" fill="#f6f9fc"/>
    <path d="M432 150h-17a2 2 0 0 1-2-2v-11a2 2 0 0 1 2-2h17a2 2 0 0 1 2 2v11a2 2 0 0 1-2 2zm1-13a1 1 0 0 0-1-1h-17a1 1 0 0 0-1 1v11a1 1 0 0 0 1 1h17a1 1 0 0 0 1-1z"
          fill="#8898aa" opacity=".2" style="isolation:isolate"/>
    <path d="M422 150h-2l-1-.5 2-1-2-1 2-1-2-1 2-1-2-1 2-1-2-1 2-1-2-1 2-1-2-1 2-1-2-1 1-.5h12a2 2 0 0 1 2 2v11a2 2 0 0 1-2 2z"
          fill="#b1372f"/>
    <path d="M446 135a2 2 0 0 0-2 2v11a2 2 0 0 0 2 2h5v-15z" fill="#43458b"/>
    <path d="M458 135v15h5a2 2 0 0 0 2-2v-11a2 2 0 0 0-2-2z" fill="#e25950"/>
    <path fill="#fcd669" d="M451 135h7v15h-7z"/>
    <path d="M477 135a2 2 0 0 0-2 2v4h21v-4a2 2 0 0 0-2-2z" fill="#f6f9fc"/>
    <path d="M475.5 140.5h20V137a1.5 1.5 0 0 0-1.5-1.5h-17a1.5 1.5 0 0 0-1.5 1.5z" fill="none" stroke="#dfe5eb"/>
    <path fill="#43458b" d="M475 140h21v5h-21z"/>
    <path d="M475 145v3a2 2 0 0 0 2 2h17a2 2 0 0 0 2-2v-3z" fill="#e25950"/>
    <path d="M508 135a2 2 0 0 0-2 2v5h21v-5a2 2 0 0 0-2-2z" fill="#45b2e8"/>
    <path fill="#fcd669" d="M506 142h21v4h-21z"/>
    <path d="M506 146v2a2 2 0 0 0 2 2h17a2 2 0 0 0 2-2v-2z" fill="#24b47e"/>
    <circle cx="523.5" cy="138.5" r="1.5" fill="#fcd669"/>
    <rect width="21" height="15" rx="2" fill="#24b47e" x="10" y="160"/>
    <path d="M25 170h1l-.5 1H25v1l-1-.5v-.5h-6.51L15 170h9v-.5l1-.5zm-1-6l1.66.15.34.85v2h-1l-1.49-.53-.51.53v-3h1zm-3.28.38L22 164v3l-1.28-.49L19 167l.17-1.86L19 164l1.72.38zM17 164l1 1v2l-.76-.34L16 167l-.99-.01.18-2.91L17 164z"
          fill="#fff"/>
    <path d="M43 160h17a2 2 0 0 1 2 2v11a2 2 0 0 1-2 2H43a2 2 0 0 1-2-2v-11a2 2 0 0 1 2-2z" fill="#217ab7"/>
    <path fill="#fcd669" d="M62 169H50v6h-3v-6h-6v-3h6v-6h3v6h12v3z"/>
    <path d="M74 160a2 2 0 0 0-2 2v6h21v-6a2 2 0 0 0-2-2z" fill="#ea2c3f"/>
    <path d="M93 167v6a2 2 0 0 1-2 2H74a2 2 0 0 1-2-2v-6z" fill="#f6f9fc"/>
    <path d="M91 175H74a2 2 0 0 1-2-2v-6h1v6a1 1 0 0 0 1 1h17a1 1 0 0 0 1-1v-6h1v6a2 2 0 0 1-2 2z" fill="#8898aa"
          opacity=".2" style="isolation:isolate"/>
    <path d="M72 168v-6a2 2 0 0 1 2-2h17a2 2 0 0 1 2 2v6z" fill="#e25950"/>
    <path d="M76.37 164a2.37 2.37 0 0 0 2.35 2.33 2.94 2.94 0 0 1-1.72.59 3 3 0 1 1 1.72-5.33 2.37 2.37 0 0 0-2.35 2.41zm6.19.38a.62.62 0 0 1-.56-.29.6.6 0 0 1 0-.61.59.59 0 0 1 1.1.3.6.6 0 0 1-.54.6zm-1.5-1.19a.59.59 0 0 1-.51-.3.57.57 0 0 1 0-.59.58.58 0 0 1 .51-.3.6.6 0 1 1 0 1.19zm-.28 2.37a.59.59 0 0 1-.3.52.62.62 0 0 1-.59 0 .61.61 0 0 1-.3-.52.59.59 0 0 1 .6-.56.58.58 0 0 1 .59.56zm-1.19-1.18a.6.6 0 0 1-.59-.6.6.6 0 0 1 1.19 0 .6.6 0 0 1-.6.6zM82 165a.58.58 0 0 1 .59.59.59.59 0 1 1-1.18 0A.58.58 0 0 1 82 165zM105 160a2 2 0 0 0-2 2v3h21v-3a2 2 0 0 0-2-2z"
          fill="#f6f9fc"/>
    <path fill="#555abf" d="M103 165h21v5h-21z"/>
    <path d="M103 170v3a2 2 0 0 0 2 2h17a2 2 0 0 0 2-2v-3z" fill="#e25950"/>
    <path d="M112 164v4.5a2.5 2.5 0 0 1-5 0V164h5m1-1h-7v5.5a3.5 3.5 0 0 0 7 0V163z" fill="#e25950"/>
    <path d="M107 164h5v4.5a2.5 2.5 0 0 1-2.5 2.5 2.5 2.5 0 0 1-2.5-2.5V164z" fill="#555abf"/>
    <path d="M109.5 171a2.5 2.5 0 0 1-2.5-2.5l1-.84.51.42.99-1.08 1 1.08.5-.41 1 .83a2.5 2.5 0 0 1-2.5 2.5z"
          fill="#f6f9fc"/>
    <circle cx="108.5" cy="165.04" r=".5" fill="#f6f9fc"/>
    <circle cx="110.5" cy="165.04" r=".5" fill="#f6f9fc"/>
    <circle cx="109.49" cy="166.17" r=".5" fill="#f6f9fc"/>
    <path d="M122 161a1 1 0 0 1 1 1v3h1v-3a2 2 0 0 0-2-2h-17a2 2 0 0 0-2 2v3h1v-3a1 1 0 0 1 1-1h17" fill="#eaeef3"/>
    <path d="M136 160a2 2 0 0 0-2 2v3h21v-3a2 2 0 0 0-2-2z" fill="#f6f9fc"/>
    <path fill="#555abf" d="M134 165h21v5h-21z"/>
    <path d="M134 170v3a2 2 0 0 0 2 2h17a2 2 0 0 0 2-2v-3z" fill="#e25950"/>
    <path d="M137 163h7v5.5a3.5 3.5 0 0 1-3.5 3.5 3.5 3.5 0 0 1-3.5-3.5V163z" fill="#f6f9fc"/>
    <path d="M138 164h5v4.5a2.5 2.5 0 0 1-2.5 2.5 2.5 2.5 0 0 1-2.5-2.5V164z" fill="#ed1c24"/>
    <path d="M140.5 171a2.5 2.5 0 0 1-2.5-2.5h5a2.5 2.5 0 0 1-2.5 2.5z" fill="#555abf"/>
    <path d="M153 161a1 1 0 0 1 1 1v3h1v-3a2 2 0 0 0-2-2h-17a2 2 0 0 0-2 2v3h1v-3a1 1 0 0 1 1-1h17" fill="#eaeef3"/>
    <path fill="#f6f9fc" d="M140 164.5h1v4h-1z"/>
    <path fill="#f6f9fc" d="M139 165h3v1h-3zm-.5 2h4v1h-4z"/>
    <path d="M167 160a2 2 0 0 0-2 2v3h21v-3a2 2 0 0 0-2-2z" fill="#24b47e"/>
    <path fill="#fff" d="M165 165h21v5h-21z"/>
    <path d="M165 170v3a2 2 0 0 0 2 2h17a2 2 0 0 0 2-2v-3z" fill="#217ab7"/>
    <path fill="#eaeef3" d="M165 165h1v5h-1zm20 0h1v5h-1z"/>
    <path d="M198 160a2 2 0 0 0-2 2v11a2 2 0 0 0 2 2h5v-15z" fill="#24b47e"/>
    <path d="M210 160v15h5a2 2 0 0 0 2-2v-11a2 2 0 0 0-2-2z" fill="#e25950"/>
    <path fill="#fcd669" d="M203 160h7v15h-7z"/>
    <path d="M208.8 166.67h-1.46a.22.22 0 0 1-.2-.14l-.45-1.39a.2.2 0 0 0-.38 0l-.45 1.39a.22.22 0 0 1-.2.14h-1.46a.2.2 0 0 0-.2.14.2.2 0 0 0 .09.19l1.18.85a.21.21 0 0 1 .07.23l-.45 1.43a.2.2 0 0 0 .11.23.21.21 0 0 0 .24 0l1.18-.8a.21.21 0 0 1 .24 0l1.18.8a.21.21 0 0 0 .24 0 .2.2 0 0 0 .07-.23l-.45-1.39a.21.21 0 0 1 .07-.23l1.15-.89a.2.2 0 0 0 .08-.19.21.21 0 0 0-.2-.14z"
          fill="#24b47e"/>
    <rect width="21" height="15" rx="2" fill="#217ab7" x="227" y="160"/>
    <path d="M241.63 166H239a.38.38 0 0 1-.35-.26l-.81-2.49a.37.37 0 0 0-.7 0l-.8 2.5a.37.37 0 0 1-.34.25h-2.63a.37.37 0 0 0-.22.67l2.13 1.54a.36.36 0 0 1 .13.41l-.81 2.5a.37.37 0 0 0 .13.41.38.38 0 0 0 .43 0l2.13-1.43a.38.38 0 0 1 .43 0l2.12 1.43a.38.38 0 0 0 .43 0 .35.35 0 0 0 .13-.41l-.81-2.5a.36.36 0 0 1 .13-.41l2.13-1.54a.37.37 0 0 0 .15-.41.38.38 0 0 0-.37-.26z"
          fill="#fff"/>
    <path d="M260 160a2 2 0 0 0-2 2v3h21v-3a2 2 0 0 0-2-2z" fill="#555abf"/>
    <path fill="#f6f9fc" d="M258 165h21v5h-21z"/>
    <path fill="#eaeef3" d="M258 165h1v5h-1zm20 0h1v5h-1z"/>
    <path d="M258 170v3a2 2 0 0 0 2 2h17a2 2 0 0 0 2-2v-3z" fill="#555abf"/>
    <path d="M268.5 169a1.5 1.5 0 1 1 1.5-1.5 1.5 1.5 0 0 1-1.5 1.5zm0-2a.5.5 0 1 0 .5.5.5.5 0 0 0-.5-.5z"
          fill="#efcf57"/>
    <path d="M291 160a2 2 0 0 0-2 2v11a2 2 0 0 0 2 2h5v-15z" fill="#43458b"/>
    <path d="M303 160v15h5a2 2 0 0 0 2-2v-11a2 2 0 0 0-2-2z" fill="#e25950"/>
    <path fill="#fcd669" d="M296 160h7v15h-7z"/>
    <path d="M341 163h-21v-1a2 2 0 0 1 2-2h17a2 2 0 0 1 2 2z" fill="#e25950"/>
    <path fill="#f9f9f9" d="M320 163h21v2h-21z"/>
    <path fill="#eaeef3" d="M320 163h1v2h-1z"/>
    <path fill="#f9f9f9" d="M320 170h21v2h-21z"/>
    <path d="M320 172h21v1a2 2 0 0 1-2 2h-17a2 2 0 0 1-2-2z" fill="#e25950"/>
    <path fill="#555abf" d="M320 165h21v5h-21z"/>
    <path fill="#eaeef3" d="M320 170h1v2h-1zm20-7h1v2h-1zm0 7h1v2h-1z"/>
    <path d="M353 160a2 2 0 0 0-2 2v3h21v-3a2 2 0 0 0-2-2z" fill="#ca0814"/>
    <path fill="#fff" d="M351 165h21v5h-21z"/>
    <path d="M351 170v3a2 2 0 0 0 2 2h17a2 2 0 0 0 2-2v-3z" fill="#24b47e"/>
    <path d="M357 168.5a.5.5 0 1 1 .5.5.5.5 0 0 1-.5-.5zm2-1a.5.5 0 1 1 .5.5.5.5 0 0 1-.5-.5zm2-1a.5.5 0 1 1 .5.5.5.5 0 0 1-.5-.5zm2 1a.5.5 0 1 1 .5.5.5.5 0 0 1-.5-.5zm2 1a.5.5 0 1 1 .5.5.5.5 0 0 1-.5-.5zm-4 0a.5.5 0 1 1 .5.5.5.5 0 0 1-.5-.5z"/>
    <path d="M357 168.5a.5.5 0 1 1 .5.5.5.5 0 0 1-.5-.5zm2-1a.5.5 0 1 1 .5.5.5.5 0 0 1-.5-.5zm2-1a.5.5 0 1 1 .5.5.5.5 0 0 1-.5-.5zm2 1a.5.5 0 1 1 .5.5.5.5 0 0 1-.5-.5zm2 1a.5.5 0 1 1 .5.5.5.5 0 0 1-.5-.5zm-4 0a.5.5 0 1 1 .5.5.5.5 0 0 1-.5-.5z"
          fill="#fcd669"/>
    <path fill="#eaeef3" d="M351 165h1v5h-1zm20 0h1v5h-1z"/>
    <path d="M401 160h-17a2 2 0 0 0-1.44.62.85.85 0 0 1 .21.11l.64.53L395 167.5l-11.59 6.24-.64.53a.85.85 0 0 1-.21.11 2 2 0 0 0 1.44.62h17a2 2 0 0 0 2-2v-11a2 2 0 0 0-2-2z"
          fill="#e25950"/>
    <path fill="#fcd669" d="M383.41 173.74L395 167.5l-11.59-6.24 7.59 6.24-7.59 6.24z"/>
    <path d="M382.87 161l.54.29-.64-.56a.85.85 0 0 0-.21-.11 1.76 1.76 0 0 0-.24.3.61.61 0 0 1 .55.08zm.54 12.74l-.54.26a.61.61 0 0 1-.55.05 1.76 1.76 0 0 0 .24.3.85.85 0 0 0 .21-.11z"/>
    <path d="M382.87 174l.54-.29 7.59-6.21-7.59-6.24-.54-.26a.61.61 0 0 0-.55 0 2 2 0 0 0-.32 1v11a2 2 0 0 0 .32 1.08.61.61 0 0 0 .55-.08zm2.63-8a1.5 1.5 0 1 1-1.5 1.5 1.5 1.5 0 0 1 1.5-1.5z"/>
    <circle cx="385.5" cy="167.5" r="1.5" fill="#f7fafc"/>
    <rect width="21" height="15" rx="2" fill="#e25950" x="413" y="160"/>
    <path d="M422.43 163.1a4.39 4.39 0 0 0-3.43 4.25 4.43 4.43 0 0 0 4.1 4.36 4.42 4.42 0 0 1-1.6.29 4.5 4.5 0 0 1 0-9 4.08 4.08 0 0 1 .93.1z"
          fill="#fff"/>
    <circle cx="424.5" cy="167.5" r="1.5" fill="#fff"/>
    <rect width="21" height="15" rx="2" fill="#e25950" x="444" y="160"/>
    <path d="M446 160h7v9h-9v-7a2 2 0 0 1 2-2z" fill="#555abf"/>
    <circle cx="448.5" cy="164.5" r="2.5" fill="#fff"/>
    <path fill="#fcd669" d="M481 175l15-10v-2l-18 12h3zm9-15l-15 10v2l18-12h-3z"/>
    <path d="M478 160h-1a2 2 0 0 0-2 2v8l15-10z" fill="#24b47e"/>
    <path d="M481 175h13a2 2 0 0 0 2-2v-8z" fill="#45b2e8"/>
    <path d="M494 160h-1l-18 12v1a2 2 0 0 0 2 2h1l18-12v-1a2 2 0 0 0-2-2z"/>
    <path d="M508 160a2 2 0 0 0-2 2v6h21v-6a2 2 0 0 0-2-2z" fill="#45b2e8"/>
    <path d="M506 168v5a2 2 0 0 0 2 2h17a2 2 0 0 0 2-2v-5z" fill="#fcd669"/>
    <path d="M29 185H12a2 2 0 0 0-2 2v11h21v-11a2 2 0 0 0-2-2z" fill="#f6f9fc"/>
    <path fill="#012b7f" d="M11 197h19v2H11z"/>
    <circle cx="14.5" cy="189.5" r="2.5" fill="#fcd669"/>
    <path fill="#012b7f"
          d="M11 193.333h19v2H11zm8-3.666h11v2H19zM19 186h9.929A1.071 1.071 0 0 1 30 187.071V188H19v-2z"/>
    <path d="M10 198a2 2 0 0 0 2 2h17a2 2 0 0 0 2-2v-11a2 2 0 0 0-2-2H12a2 2 0 0 0-2 2zm1-11a1 1 0 0 1 1-1h17a1 1 0 0 1 1 1v11a1 1 0 0 1-1 1H12a1 1 0 0 1-1-1z"
          fill="#eaeef3"/>
    <path d="M60 200H43a2 2 0 0 1-2-2v-7h8v-6h11a2 2 0 0 1 2 2v11a2 2 0 0 1-2 2z" fill="#e25950"/>
    <path d="M41 196h21v1H41zm0-2h21v1H41zm0-2h21v1H41zm8-2h13v1H49zm0-2h13v1H49zm0-2h12.72a2 2 0 0 1 .28 1H49zm12.72 13H41.28a2 2 0 0 1-.28-1h21a2 2 0 0 1-.28 1z"
          fill="#f6f9fc"/>
    <path d="M60 200H43a2 2 0 0 1-2-2v-7h1v7a1 1 0 0 0 1 1h17a1 1 0 0 0 1-1v-11a1 1 0 0 0-1-1H49v-1h11a2 2 0 0 1 2 2v11a2 2 0 0 1-2 2z"
          fill="#e25950" opacity=".2" style="isolation:isolate"/>
    <path d="M41 192v-5a2 2 0 0 1 2-2h7v7z" fill="#43458b"/>
    <path d="M48.73 187.41a.69.69 0 0 1-.63-.35.7.7 0 0 1 0-.71.69.69 0 0 1 .63-.35.71.71 0 0 1 0 1.41zm-.3 1.29a.7.7 0 1 1-.7-.7.7.7 0 0 1 .7.7zm-1.7-1.29a.69.69 0 0 1-.63-.35.71.71 0 0 1 0-.72.7.7 0 0 1 .63-.34.7.7 0 0 1 .68.7.71.71 0 0 1-.68.71zm-.3 1.29a.7.7 0 1 1-.7-.7.7.7 0 0 1 .7.7zm-1.7-1.29a.69.69 0 0 1-.63-.35.71.71 0 0 1 0-.72.7.7 0 0 1 .63-.34.7.7 0 0 1 .68.7.71.71 0 0 1-.68.71zm-.3 1.29a.7.7 0 1 1-.7-.7.7.7 0 0 1 .7.7zm-1.7-1.29a.69.69 0 0 1-.63-.35.7.7 0 0 1 0-.71.69.69 0 0 1 .63-.35.71.71 0 0 1 0 1.41zm0 2.59a.7.7 0 0 1 .63.34.71.71 0 0 1 0 .72.69.69 0 0 1-.63.35.71.71 0 0 1-.68-.71.7.7 0 0 1 .68-.7zm2 0a.7.7 0 0 1 .63.34.71.71 0 0 1 0 .72.69.69 0 0 1-.63.35.71.71 0 0 1-.68-.71.7.7 0 0 1 .68-.7zm2 0a.7.7 0 0 1 .63.34.71.71 0 0 1 0 .72.69.69 0 0 1-.63.35.71.71 0 0 1-.68-.71.7.7 0 0 1 .68-.7zm2 0a.7.7 0 0 1 .63.34.71.71 0 0 1 0 .72.69.69 0 0 1-.63.35.71.71 0 0 1-.68-.71.7.7 0 0 1 .68-.7z"
          fill="#fff"/>
    <path d="M50 189.21a.67.67 0 0 1-.48.2.71.71 0 0 1-.64-.34.69.69 0 0 1 0-.73.73.73 0 0 1 1.12-.14zm-9-1a.68.68 0 0 1 .77-.19.7.7 0 0 1 .45.66.71.71 0 0 1-.7.7.69.69 0 0 1-.52-.21z"
          fill="#fff" opacity=".5" style="isolation:isolate"/>
    <path d="M74 185a2 2 0 0 0-2 2v3h21v-3a2 2 0 0 0-2-2z" fill="#fcd669"/>
    <path d="M72 195v3a2 2 0 0 0 2 2h17a2 2 0 0 0 2-2v-3z" fill="#e25950"/>
    <path fill="#43458b" d="M72 190h21v6H72z"/>
    <path d="M78 194.5a.5.5 0 1 1 .5.5.5.5 0 0 1-.5-.5zm1-2a.5.5 0 1 1 .5.5.5.5 0 0 1-.5-.5zm3-1a.5.5 0 1 1 .5.5.5.5 0 0 1-.5-.5zm3 1a.5.5 0 1 1 .5.5.5.5 0 0 1-.5-.5zm1 2a.5.5 0 1 1 .5.5.5.5 0 0 1-.5-.5z"
          fill="#fff"/>
    <rect width="21" height="15" rx="2" fill="#e25950" x="103" y="185"/>
    <path d="M117.63 191H115a.38.38 0 0 1-.35-.26l-.81-2.49a.37.37 0 0 0-.7 0l-.8 2.5a.37.37 0 0 1-.34.25h-2.63a.37.37 0 0 0-.22.67l2.13 1.54a.36.36 0 0 1 .13.41l-.81 2.5a.37.37 0 0 0 .13.41.38.38 0 0 0 .43 0l2.13-1.43a.38.38 0 0 1 .43 0l2.12 1.43a.38.38 0 0 0 .43 0 .35.35 0 0 0 .13-.41l-.81-2.5a.36.36 0 0 1 .13-.41l2.13-1.54a.37.37 0 0 0 .15-.41.38.38 0 0 0-.37-.26z"
          fill="#fcd669"/>
    <path d="M153 200h-11.1l8.66-15H153a2 2 0 0 1 2 2v11a2 2 0 0 1-2 2zm-14.56 0H136a2 2 0 0 1-2-2v-11a2 2 0 0 1 2-2h11.1z"/>
    <path d="M167 185a2 2 0 0 0-2 2v3h21v-3a2 2 0 0 0-2-2z" fill="#e25950"/>
    <path fill="#fff" d="M165 190h21v5h-21z"/>
    <path d="M165 195v3a2 2 0 0 0 2 2h17a2 2 0 0 0 2-2v-3z"/>
    <path fill="#eaeef3" d="M165 190h1v5h-1zm20 0h1v5h-1z"/>
    <path fill="#f6f9fc" d="M199 185h18v15h-18z"/>
    <path d="M206.24 189.25H217V187a2 2 0 0 0-2-2h-14.71z" fill="#e25950"/>
    <path d="M200.29 200H215a2 2 0 0 0 2-2v-2.25h-10.76z" fill="#012b7f"/>
    <path d="M217 195h-11l-7 5h-1a2 2 0 0 1-2-2v-11a2 2 0 0 1 2-2h1l7 5h11z" fill="#24b47e"/>
    <path d="M196 197v-9l6.5 4.5-6.5 4.5z"/>
    <path fill="#fcd669" d="M196.43 187.38l-.43-.29v.91l6.5 4.5-6.5 4.5v.91l.43-.29 6.5-4.5.89-.62-.89-.62-6.5-4.5z"/>
</svg>